<svg xmlns="http://www.w3.org/2000/svg" viewBox="0 0 1267.23 709.91"><defs><style>.a{fill:#ffc423;}.b{fill:#396896;}.c{fill:#3b3b3b;}.d{fill:#fefefe;}.e{fill:#8b9b2a;}.f{fill:#3fa9f4;}.g{fill:#1a838e;}.h{fill:#fff;}</style></defs><title>devops</title><path class="a" d="M640.86,142.39c15.45-18.62,31.94-36.22,50.55-51.76q73.08-61,166.74-77.9A354.73,354.73,0,0,1,975,11.64c1.47.23,2.91.64,4.74,1Q983.36,37,987,61.46c1.44,9.88,2.72,19.79,4.31,29.64a7.64,7.64,0,0,1-1.46,6c-13.63,20.13-27.34,40.21-40.7,60.51-2.5,3.81-5.46,3-8.64,2.71-26.32-2.57-52.35-.89-77.57,7.15-74.36,23.7-121.33,73.6-140.78,149.18-4.33,16.84-5.55,34.13-5.1,51.47-2.17,1.09-3.71-.33-5.29-.94q-32.59-12.53-65.11-25.26a11.29,11.29,0,0,0-9,0c-22.42,8.87-44.91,17.55-67.4,26.23-1.49.58-2.95,1.64-5.22,1.09,0-7,0-14.13,0-21.24.64-7.45,1.22-14.9,1.92-22.35a346.77,346.77,0,0,1,27.73-106C606.71,191.87,622.54,166.39,640.86,142.39Z" transform="translate(-7.29 -7.33)"/><path class="b" d="M368.76,159.35A238.49,238.49,0,0,0,334,161.22,202.82,202.82,0,0,0,166.14,310.47,156.1,156.1,0,0,0,161,338.91c-.23,3.11-1.56,4.6-4.44,5.7Q122.05,357.8,87.7,371.3a8.37,8.37,0,0,1-6.63-.08c-22.76-8.92-45.5-17.9-68.4-26.42-4.31-1.61-4.89-3.79-4.6-7.67,3.74-49.43,16.49-96.36,40-140q67.24-125,201.58-171.41C288.37,12.32,328.44,6.6,369.47,7.51c.57,1.92-.55,3.29-1.12,4.75-8.69,22.49-17.36,45-26.21,67.41a12,12,0,0,0,.07,9.53c8.5,21.49,16.85,43,25.21,64.59C368.06,155.46,369.23,157,368.76,159.35Z" transform="translate(-7.29 -7.33)"/><path class="b" d="M8.22,358.33c9.86,3.78,19.9,7.59,29.91,11.47,14.11,5.46,28.22,10.9,42.27,16.51a10.08,10.08,0,0,0,8.08,0c21.8-8.62,43.66-17.1,65.5-25.6,1.52-.59,3.1-1.06,4.71-1.6,1.53,2.27.85,4.67.95,6.9C163.15,444.62,199.6,503,268,541.28a178,178,0,0,0,67.12,21.3c4,.46,6.32,1.84,7.85,5.91,8.59,22.88,17.49,45.64,26.41,68.4a8.92,8.92,0,0,1,0,7.11q-13.29,33.9-26.26,67.93c-1.14,3-2.51,4-5.75,3.75-54-3.79-104.76-18.68-151.43-46.08Q53.45,591.83,16.61,442.32c-6.46-26.32-9-53.14-9.27-80.2C7.33,361,7,359.79,8.22,358.33Z" transform="translate(-7.29 -7.33)"/><path class="a" d="M641.89,582.14c-1.72.19-2.45,1.61-3.38,2.74Q559.34,681.41,437.59,709a312.22,312.22,0,0,1-66.83,7.74c-4.45,0-8.91,1.14-13.67,0,.6-4.61,2.79-8.56,4.36-12.66q11.3-29.61,23-59.08a10,10,0,0,0-.14-8q-12.88-33-25.57-66.11c-.59-1.54-1.14-3.09-1.84-5,3.56-1.1,7-1.07,10.37-1.14,90.24-1.88,168.83-64.2,191.32-151.79a146.44,146.44,0,0,0,4.38-23,5.41,5.41,0,0,1,3.83-5.16q36.55-14.12,73.07-28.31a5.43,5.43,0,0,1,4.28-.09q35.77,14,71.57,28a2,2,0,0,1,.4.29c.24,9-1.07,17.93-2.4,26.76-3.83,25.3-9.69,50.13-18.79,74.14-12.46,32.88-29,63.47-50.6,91.28C643.07,578.4,641.74,579.94,641.89,582.14Z" transform="translate(-7.29 -7.33)"/><path class="a" d="M962.21,163.73l28.64-42.5c4.19-6.22,8.23-12.54,12.63-18.6A12.92,12.92,0,0,0,1006,92.4q-5.44-35.51-10.65-71.06c-.26-1.77-.76-3.58.08-5.73a216.09,216.09,0,0,1,25.92,6.57q146.33,45.63,216.24,182.06c18.79,36.59,29.89,75.68,34.62,116.61a368.33,368.33,0,0,1-2.16,98.55c-.53,3.43-2.25,4.38-5.12,4.8q-24.69,3.62-49.37,7.28c-7.57,1.11-15.16,2.08-22.7,3.36a6.88,6.88,0,0,1-5.57-1q-31.61-21.49-63.36-42.78c-2.7-1.81-3.05-3.83-2.76-6.7,5.19-51.48-6.67-98.6-37-140.62-29.66-41.08-69.52-67.23-118.76-79.13C964.6,164.41,963.85,164.18,962.21,163.73Z" transform="translate(-7.29 -7.33)"/><path class="a" d="M1266.39,438.45c-4.87,22.6-11.43,43.91-20.72,64.2C1195.28,612.72,1111.21,682,993.13,709.15c-42.8,9.82-86.2,10-129.61,3.23-3.57-.56-5.18-1.67-5.75-5.72-3.23-23.07-6.87-46.08-10.52-69.09a11.39,11.39,0,0,1,2-8.82c13.54-20,27.11-40,40.24-60.2,2.81-4.33,5.64-5.41,10.48-4.92,36.25,3.68,71.22-1.66,104.1-17.33,59-28.1,96.71-74.08,113-137.5.36-1.41.81-2.8,1.36-4.65l42.41,28.67c7,4.76,14.12,9.43,21,14.36a11.85,11.85,0,0,0,9.26,2.31c23.7-3.58,47.41-7,71.12-10.49C1263.38,438.84,1264.5,438.7,1266.39,438.45Z" transform="translate(-7.29 -7.33)"/><path class="b" d="M640.86,142.39c-18.32,24-34.15,49.48-46.21,77.24a346.77,346.77,0,0,0-27.73,106c-.71,7.45-1.29,14.9-1.92,22.35-1.85-9.76-2.28-19.72-4.7-29.4-19.44-77.79-67.69-128.25-144.14-151.89a133.22,133.22,0,0,0-26.38-5.28c-2.89-.28-4.69-1.27-5.84-4.27-8.83-23.13-17.85-46.2-26.87-69.26a8.39,8.39,0,0,1-.14-6.66Q370.54,46.66,383.82,12c1.19-3.14,2.73-3.84,5.84-3.59a355.37,355.37,0,0,1,251.2,134Z" transform="translate(-7.29 -7.33)"/><path class="b" d="M641.89,582.14c-.15-2.2,1.19-3.73,2.41-5.31,21.6-27.8,38.14-58.39,50.6-91.28,9.1-24,15-48.84,18.79-74.14,1.34-8.82,2.64-17.75,2.4-26.76,3.21,0,2.46,2.74,2.69,4.41Q728.4,458,778,506.77a198.37,198.37,0,0,0,94,52.12c1.7.41,3.7.26,5.15,1.75,0,2-1.53,3.24-2.5,4.69q-20.14,30.08-40.44,60.05a11.31,11.31,0,0,0-1.77,8.86c3.58,22.84,7,45.71,10.47,68.57.22,1.45.24,2.92.39,4.81-4.19.21-7.75-1.24-11.33-2.19Q716.68,675,641.89,582.14Z" transform="translate(-7.29 -7.33)"/><path class="c" d="M900,358c0,12.9-6.86,20.1-19,20s-18.8-7.47-18.64-20.34c.16-12.63,7-19.8,18.75-19.8C893.21,337.83,900,345.12,900,358Zm-8.88-.27c-.05-1,0-2.38-.21-3.7-.75-5.82-4.09-9.16-9.21-9.32-5.37-.16-8.84,3.12-9.92,9.16a23.52,23.52,0,0,0,.35,9.9,9.58,9.58,0,0,0,13.75,6.36C890.72,367.57,891,362.79,891.13,357.74Z" transform="translate(-7.29 -7.33)"/><path class="c" d="M307.79,377.31V338.36c6.42.23,12.71-.74,18.88.82,9,2.27,13.5,8.82,13.32,19-.17,9.6-5.12,16.26-13.73,18.33C320.24,377.95,314.13,377.44,307.79,377.31Zm8.34-6.92c5.73.31,11.11.22,13.7-5.42,2.37-5.16,2.52-10.75-.63-15.7s-8.1-4.08-13.06-3.8Z" transform="translate(-7.29 -7.33)"/><path class="c" d="M373.76,360.49h-13v10h13.67a13.93,13.93,0,0,1,.12,6.74H352.63V338.72h21.74c1,1.93.24,3.9.47,6-4.68,1.44-9.41-.16-14,1a19.39,19.39,0,0,0,0,7.85H373C374.32,355.8,373.63,357.8,373.76,360.49Z" transform="translate(-7.29 -7.33)"/><path class="c" d="M912.46,338.5c5.09,0,10.06-.23,15,.05,7.26.42,11.19,4.17,11.62,10.56.53,7.74-2.5,12.05-9.94,13.74a84.8,84.8,0,0,1-8.66,1.06v13.23h-8Zm8.16,17.92c4,.21,7.61.75,9.65-3.15a5.23,5.23,0,0,0-.42-6.1c-2.5-2.8-5.8-2.46-9.23-1.8Z" transform="translate(-7.29 -7.33)"/><path class="c" d="M390.65,338.53l9.14,29.59,9.44-29.54h8.33c-4.26,12.58-8.17,24.88-12.66,37-1.58,4.25-5.92.83-9.31,2.2L382.43,339C385.25,338,387.68,338.43,390.65,338.53Z" transform="translate(-7.29 -7.33)"/><path class="c" d="M948.55,368.28c3.86.87,7.48,2.92,11.58,2.53,2.17-.21,4.47-.3,5.07-3.06.56-2.56-.91-4.12-2.93-5.22-2.48-1.35-5.1-2.44-7.53-3.86-5-2.93-7.06-7.67-5.72-13.16,1.25-5.11,5.2-7.17,9.89-7.83a21.71,21.71,0,0,1,14.39,2.73l-2.6,6c-3.37-.57-6.41-2.24-9.78-1.81-1.91.24-3.63.81-4.11,3s.53,3.51,2.33,4.47c2.79,1.48,5.65,2.82,8.35,4.46,4.9,3,7.16,7.88,6,12.58-1.18,4.89-5.16,8-11,8.49a41.53,41.53,0,0,1-7,0C948.18,376.8,947.53,375.9,948.55,368.28Z" transform="translate(-7.29 -7.33)"/><path class="d" d="M891.13,357.74c-.09,5.05-.41,9.83-5.23,12.41a9.58,9.58,0,0,1-13.75-6.36,23.52,23.52,0,0,1-.35-9.9c1.08-6,4.55-9.32,9.92-9.16,5.12.15,8.46,3.5,9.21,9.32C891.1,355.35,891.08,356.69,891.13,357.74Z" transform="translate(-7.29 -7.33)"/><path class="d" d="M316.14,370.39V345.47c5-.28,10-1,13.06,3.8s3,10.54.63,15.7C327.25,370.61,321.87,370.69,316.14,370.39Z" transform="translate(-7.29 -7.33)"/><path class="d" d="M920.62,356.42V345.36c3.43-.66,6.74-1,9.23,1.8a5.23,5.23,0,0,1,.42,6.1C928.24,357.17,924.63,356.63,920.62,356.42Z" transform="translate(-7.29 -7.33)"/><path class="e" d="M160.55,169l-.27-1,.87.44Q160.85,168.66,160.55,169Z" transform="translate(-7.29 -7.33)"/><path class="f" d="M519.11,590.12c-.82,2-2.26,2.37-3.64,2.94-1.59-2-1.59-4.54-2.9-7.52C515.88,586.65,517.3,588.7,519.11,590.12Z" transform="translate(-7.29 -7.33)"/><path class="g" d="M526.7,144.27a6.37,6.37,0,0,1-4.13-3.3l6.09-4.73C528.93,139.44,527.23,141.53,526.7,144.27Z" transform="translate(-7.29 -7.33)"/><path class="h" d="M162.24,520.88l-5.1-7.44-24.44,16.77a5.46,5.46,0,0,1-3.78,1.21,3.83,3.83,0,0,1-2.69-1.73,3.88,3.88,0,0,1-.66-3.18,5.42,5.42,0,0,1,2.47-3.09l24.44-16.77-5.1-7.44a4.56,4.56,0,0,1-1-3.12,3.16,3.16,0,0,1,1.45-2.24,3.12,3.12,0,0,1,2.67-.53,4.64,4.64,0,0,1,2.51,2L167.86,517a4.62,4.62,0,0,1,1,3.16,3.19,3.19,0,0,1-1.45,2.26,3.12,3.12,0,0,1-2.63.52A4.68,4.68,0,0,1,162.24,520.88Z" transform="translate(-7.29 -7.33)"/><path class="h" d="M163.1,553.81l-9.95-11a10.09,10.09,0,0,0-2.69,3.83A7,7,0,0,0,151.8,554a9.08,9.08,0,0,0,1.91,1.64,8.09,8.09,0,0,0,2.21,1,16.69,16.69,0,0,0,2.39.47q1.17.14,3.12.3a2.49,2.49,0,0,1,1.49.91,2.75,2.75,0,0,1,.79,1.83,2.29,2.29,0,0,1-.86,1.75,4.94,4.94,0,0,1-2.33,1,9.56,9.56,0,0,1-3.59,0,13.86,13.86,0,0,1-4.3-1.63,17.6,17.6,0,0,1-4.41-3.65q-4.9-5.44-4.52-11.25t5.69-10.6a18.9,18.9,0,0,1,5.31-3.44,13.78,13.78,0,0,1,5.63-1.14,12.67,12.67,0,0,1,5.51,1.4,17,17,0,0,1,5,3.9,14.79,14.79,0,0,1,3.72,6.93,12.36,12.36,0,0,1-.41,6.8,12.77,12.77,0,0,1-3.45,5.24q-2.13,1.92-3.86,1.27A10.24,10.24,0,0,1,163.1,553.81Zm-6.74-13.93,9.22,10.23a9.24,9.24,0,0,0,2.93-5.46,6.29,6.29,0,0,0-1.78-4.86,6.08,6.08,0,0,0-4.58-2.15A9.76,9.76,0,0,0,156.36,539.89Z" transform="translate(-7.29 -7.33)"/><path class="h" d="M190.4,582.24a8.81,8.81,0,0,1-10.21,3.09,20.29,20.29,0,0,1-6.41-3.64,17.76,17.76,0,0,1-4.7-5.35,10.22,10.22,0,0,1-1.42-5.14,6.31,6.31,0,0,1,1.26-3.82,2.92,2.92,0,0,1,2-1.12,3.05,3.05,0,0,1,2.32.71,2.63,2.63,0,0,1,1.07,1.6,6.41,6.41,0,0,1-.07,2,8.32,8.32,0,0,0,.29,4.12,8.44,8.44,0,0,0,2.84,3.55,6.42,6.42,0,0,0,3.56,1.54,2.85,2.85,0,0,0,2.59-.91,3.16,3.16,0,0,0,.64-3.23,18.75,18.75,0,0,0-2.81-4.49,41.31,41.31,0,0,1-3.72-5.58,10.51,10.51,0,0,1-1.32-4.66,6.47,6.47,0,0,1,1.54-4.29,7.6,7.6,0,0,1,3.76-2.52,9.36,9.36,0,0,1,5.17,0,15.42,15.42,0,0,1,5.77,3.05,21.08,21.08,0,0,1,3.76,3.79,13.24,13.24,0,0,1,2,3.73,8.11,8.11,0,0,1,.45,3.28,4.47,4.47,0,0,1-.89,2.43,2.83,2.83,0,0,1-2,1.13,3.47,3.47,0,0,1-2.47-.9,3.05,3.05,0,0,1-1.14-1.76,13.14,13.14,0,0,1-.22-2.74,6.88,6.88,0,0,0-.48-2.66,6.41,6.41,0,0,0-2.06-2.5,6.22,6.22,0,0,0-3.22-1.45,2.56,2.56,0,0,0-2.43.86,2.36,2.36,0,0,0-.44,2.16,8.3,8.3,0,0,0,1.32,2.67q1,1.45,2.89,3.87a25,25,0,0,1,3.23,5.21,9.61,9.61,0,0,1,.89,4.33A6.27,6.27,0,0,1,190.4,582.24Z" transform="translate(-7.29 -7.33)"/><path class="h" d="M208.46,569.47l.72.42,2.29-3.95q.92-1.59,1.53-2.44a4.24,4.24,0,0,1,1.37-1.28,3.43,3.43,0,0,1,1.74-.45,3.64,3.64,0,0,1,1.86.52,3.75,3.75,0,0,1,1.72,2.25,3.22,3.22,0,0,1,0,2,16.1,16.1,0,0,1-1.31,2.67l-2.6,4.48,2.41,1.4a3.56,3.56,0,0,1,1.75,1.9,2.52,2.52,0,0,1-.25,2.12,2.2,2.2,0,0,1-2.12,1.24,7.85,7.85,0,0,1-3.3-1.21l-1.23-.71-7,12.08A22.71,22.71,0,0,0,204.7,593a2.79,2.79,0,0,0-.21,1.68,2.28,2.28,0,0,0,1.23,1.41,9.44,9.44,0,0,0,1.68.71,9.32,9.32,0,0,1,1.66.69,2.29,2.29,0,0,1,1.06,1.47,2.48,2.48,0,0,1-.28,1.95,3.05,3.05,0,0,1-3.15,1.42,13.55,13.55,0,0,1-5.47-2.05,10,10,0,0,1-4.07-3.75,5.55,5.55,0,0,1-.42-4.07,22.47,22.47,0,0,1,2.35-5.17l7.33-12.61-.87-.5a3.61,3.61,0,0,1-1.77-1.93,2.55,2.55,0,0,1,.25-2.14,2.46,2.46,0,0,1,1.77-1.24A4,4,0,0,1,208.46,569.47Z" transform="translate(-7.29 -7.33)"/><path class="h" d="M149.56,226.95l-5.4,11.24a5.16,5.16,0,0,1-2.76,2.95,5.44,5.44,0,0,1-4-.63l-27.64-13.29a5.34,5.34,0,0,1-3-2.75,5.25,5.25,0,0,1,.59-4l5.73-11.92a30.9,30.9,0,0,1,2.52-4.41,10.8,10.8,0,0,1,2.92-2.86,10.09,10.09,0,0,1,3.08-1.36,9.63,9.63,0,0,1,3.37-.26,9.78,9.78,0,0,1,3.3.94q5.52,2.65,5.42,9.4,5.79-6.14,12.46-2.93a11.2,11.2,0,0,1,4.8,4.25,10.53,10.53,0,0,1,1.6,6,16.8,16.8,0,0,1-.87,4.34A43.55,43.55,0,0,1,149.56,226.95Zm-35.17-6.68,9.51,4.57,3.28-6.82a15.21,15.21,0,0,0,1.54-4.56,4.56,4.56,0,0,0-.89-3.28,5,5,0,0,0-2.06-1.76q-2.78-1.34-4.65.2a16.79,16.79,0,0,0-3.82,5.6Zm18.58-.61-3.73,7.75L140,232.56l3.85-8Q147.45,217,142,214.4a4.93,4.93,0,0,0-5,0Q134.84,215.76,133,219.65Z" transform="translate(-7.29 -7.33)"/><path class="h" d="M168.57,190.43l-.78-.59a16.94,16.94,0,0,1,.57,4,10.56,10.56,0,0,1-.6,3.67,13.29,13.29,0,0,1-2,3.58,10.5,10.5,0,0,1-3.9,3.25,8.33,8.33,0,0,1-4.55.79,13.93,13.93,0,0,1-6.4-3.08l-12-9.1a4.91,4.91,0,0,1-2.09-2.88,3.52,3.52,0,0,1,.75-2.85,3.62,3.62,0,0,1,2.59-1.53,4.84,4.84,0,0,1,3.34,1.21l9.69,7.35a18.76,18.76,0,0,0,3.81,2.33,5.33,5.33,0,0,0,3.21.42,4.57,4.57,0,0,0,2.7-1.88,6.37,6.37,0,0,0,1.28-3.57,6.67,6.67,0,0,0-.87-3.77q-.9-1.49-5.24-4.78l-7.36-5.59a4.84,4.84,0,0,1-2.07-2.89,3.58,3.58,0,0,1,.76-2.88,3.52,3.52,0,0,1,2.55-1.49,4.92,4.92,0,0,1,3.34,1.24l17.54,13.31a4.7,4.7,0,0,1,2,2.76,3.52,3.52,0,0,1-3.13,4.05A4.55,4.55,0,0,1,168.57,190.43Z" transform="translate(-7.29 -7.33)"/><path class="h" d="M159.22,156.07a4,4,0,0,1-2.61,1.23,3.78,3.78,0,0,1-3.81-3.85,3.88,3.88,0,0,1,1.16-2.64,4,4,0,0,1,2.52-1.18,3.37,3.37,0,0,1,2.75,1.14,3.47,3.47,0,0,1,1.15,2.73A3.85,3.85,0,0,1,159.22,156.07Zm8.21,2.9L183,174.5a4.91,4.91,0,0,1,1.67,3.21,3.6,3.6,0,0,1-1.12,2.77,3.43,3.43,0,0,1-2.77,1.07,5.05,5.05,0,0,1-3.16-1.68L162.21,164.5a4.87,4.87,0,0,1-1.66-3.14,3.51,3.51,0,0,1,1.11-2.72,3.64,3.64,0,0,1,2.76-1.14A4.42,4.42,0,0,1,167.43,159Z" transform="translate(-7.29 -7.33)"/><path class="h" d="M188.37,169.53,167.1,144.36a5.12,5.12,0,0,1-1.45-3.29A3.45,3.45,0,0,1,167,138.4a3.6,3.6,0,0,1,2.87-.91,5,5,0,0,1,3,2l21.27,25.17a4.93,4.93,0,0,1,1.42,3.34,3.61,3.61,0,0,1-1.37,2.67,3.43,3.43,0,0,1-2.85.84A5,5,0,0,1,188.37,169.53Z" transform="translate(-7.29 -7.33)"/><path class="h" d="M217.17,148.9l-.41-.63a19.32,19.32,0,0,1-1,4,11.36,11.36,0,0,1-1.82,3.15,12.14,12.14,0,0,1-2.89,2.53,11.2,11.2,0,0,1-4.88,1.75,11.79,11.79,0,0,1-5.17-.61,15,15,0,0,1-4.88-2.85,21.5,21.5,0,0,1-4.12-4.8q-3.84-6-3.06-11.23a11.57,11.57,0,0,1,5.56-8.29,12.3,12.3,0,0,1,5.27-2,15.44,15.44,0,0,1,5.57.55L199.31,121a5.68,5.68,0,0,1-1.12-3.48,3.17,3.17,0,0,1,1.59-2.44,3.29,3.29,0,0,1,2.83-.51,4.9,4.9,0,0,1,2.53,2.23L223.22,145a4.65,4.65,0,0,1,.91,3.28,3.36,3.36,0,0,1-1.59,2.31,3.31,3.31,0,0,1-2.78.44A4.64,4.64,0,0,1,217.17,148.9Zm-18.61-1.33a13,13,0,0,0,3.65,3.91,7.33,7.33,0,0,0,4,1.33,6.5,6.5,0,0,0,3.66-1,6.72,6.72,0,0,0,2.52-2.85,7.17,7.17,0,0,0,.5-4.12,12.93,12.93,0,0,0-2.07-5.07,12.59,12.59,0,0,0-3.65-3.86,7.84,7.84,0,0,0-4.05-1.37,6.38,6.38,0,0,0-3.73,1,6.22,6.22,0,0,0-2.5,3,7.59,7.59,0,0,0-.31,4.23A13.5,13.5,0,0,0,198.57,147.56Z" transform="translate(-7.29 -7.33)"/><path class="h" d="M484.67,124.44l-7.07-2.7-4.11,10.79a5.39,5.39,0,0,1-2.43,3.09,4.12,4.12,0,0,1-5.57-2.11,5.38,5.38,0,0,1,.26-3.88l11.2-29.39a5.14,5.14,0,0,1,2.56-3.2,5.7,5.7,0,0,1,4.14.33l9.91,3.78a27.83,27.83,0,0,1,6.5,3.25,10.79,10.79,0,0,1,3.22,3.7,10.42,10.42,0,0,1,1.18,4.68,13.92,13.92,0,0,1-1,5.25q-2.22,5.83-7,7.46T484.67,124.44Zm4.79-18.19-5.2-2-4.44,11.65,5.2,2a16.63,16.63,0,0,0,4.78,1.17,5.69,5.69,0,0,0,3.51-.81,6,6,0,0,0,2.26-3,6.18,6.18,0,0,0,.08-4.67Q494.64,108.22,489.46,106.25Z" transform="translate(-7.29 -7.33)"/><path class="h" d="M499.08,144.46,515.77,116a5.12,5.12,0,0,1,2.62-2.46,3.45,3.45,0,0,1,3,.38,3.59,3.59,0,0,1,1.81,2.41,5,5,0,0,1-.84,3.52l-16.69,28.42a4.93,4.93,0,0,1-2.68,2.45,3.61,3.61,0,0,1-3-.41,3.43,3.43,0,0,1-1.73-2.41A5,5,0,0,1,499.08,144.46Z" transform="translate(-7.29 -7.33)"/><path class="h" d="M526.91,163.79a23.47,23.47,0,0,1-6.19-.68,14.9,14.9,0,0,1-5.24-2.65,10.94,10.94,0,0,1-3.38-4,8.45,8.45,0,0,1-.81-4.56,8.12,8.12,0,0,1,1.65-4.13,7.68,7.68,0,0,1,4.8-3,9.88,9.88,0,0,1,6.1.95q.68.31,3.31,1.58t4.56,2.13q1.92.85,4.25,1.75a7.93,7.93,0,0,0,1.71-4.24q0-1.77-2.68-3.81a9.25,9.25,0,0,0-4-2,7.08,7.08,0,0,0-3.46.41,25.48,25.48,0,0,1-2.46.8,2.42,2.42,0,0,1-1.78-.71,3.24,3.24,0,0,1-1.26-2,2.67,2.67,0,0,1,.53-2.24,6.43,6.43,0,0,1,3.49-2.24,10.14,10.14,0,0,1,5.41.21,20,20,0,0,1,6.7,3.57,21.2,21.2,0,0,1,5.55,5.72,7.33,7.33,0,0,1,.95,5.43,16.38,16.38,0,0,1-3.18,6.12l-2.76,3.6L536.2,163a15.28,15.28,0,0,0-2.15,4,14.14,14.14,0,0,1-1.25,2.81,2.8,2.8,0,0,1-2.17,1,3.69,3.69,0,0,1-2.56-.75,3.36,3.36,0,0,1-1.17-2.28A16.29,16.29,0,0,1,526.91,163.79Zm6.27-9a38.27,38.27,0,0,1-4.65-1.92q-2.95-1.39-4.12-1.88a6,6,0,0,0-2.62-.42,3.21,3.21,0,0,0-2.46,1.39,3.85,3.85,0,0,0-.74,3.13,4.84,4.84,0,0,0,2,3,8.91,8.91,0,0,0,3.91,1.74,6.59,6.59,0,0,0,3.77-.33q1.86-.75,4.26-3.89Z" transform="translate(-7.29 -7.33)"/><path class="h" d="M558.29,161.56l-.65.65a13.29,13.29,0,0,1,5.85.32,11.68,11.68,0,0,1,4.76,3,10.91,10.91,0,0,1,2.9,4.71,8.31,8.31,0,0,1-.09,5.12,8.82,8.82,0,0,1-1.42,2.82,31.08,31.08,0,0,1-2.74,3.09L557,191.29a5,5,0,0,1-3.17,1.72,3.75,3.75,0,0,1-3.87-3.87,5,5,0,0,1,1.65-3.18l8.9-9a12.65,12.65,0,0,0,3.3-4.82q.66-2.15-1.56-4.34a6.16,6.16,0,0,0-3.48-1.74,7,7,0,0,0-4.08.64,23.79,23.79,0,0,0-4.86,4.12l-6.69,6.77a4.93,4.93,0,0,1-3.2,1.71,3.61,3.61,0,0,1-2.78-1.12,3.44,3.44,0,0,1-1.08-2.75,5,5,0,0,1,1.65-3.18l15.44-15.62a4.78,4.78,0,0,1,3-1.64,3.28,3.28,0,0,1,2.59,1.06,3.51,3.51,0,0,1,1,1.61,3.39,3.39,0,0,1-.08,1.92A5,5,0,0,1,558.29,161.56Z" transform="translate(-7.29 -7.33)"/><path class="h" d="M484.62,623.75l-2.45,1.54,7,11.09a5.45,5.45,0,0,1,1.07,3.83,3.89,3.89,0,0,1-1.87,2.62,3.79,3.79,0,0,1-3.27.55,5.67,5.67,0,0,1-2.92-2.6l-16.72-26.57a4.34,4.34,0,0,1,1.59-7l11.38-7.16a40.84,40.84,0,0,1,4.15-2.33,11.93,11.93,0,0,1,3.53-1.08,10.31,10.31,0,0,1,4.1.15,10.09,10.09,0,0,1,3.76,1.76,11.63,11.63,0,0,1,2.89,3.16,10.19,10.19,0,0,1,1.71,7.54q-.73,3.68-4.55,7.43a15.09,15.09,0,0,1,5.39.68,34.9,34.9,0,0,1,5.61,2.2,35.88,35.88,0,0,1,4.55,2.63,9.2,9.2,0,0,1,2.26,1.95,2.92,2.92,0,0,1,.42,1.63,3.61,3.61,0,0,1-.52,1.81,4.43,4.43,0,0,1-1.5,1.49,4,4,0,0,1-2.33.69,6.29,6.29,0,0,1-2.26-.53q-1.11-.48-3.14-1.51l-5.74-2.9a30.44,30.44,0,0,0-5.16-2.21,7.88,7.88,0,0,0-3.57-.32A9.78,9.78,0,0,0,484.62,623.75Zm-5.13-17L473,610.78l6,9.49,6.27-3.94a20.75,20.75,0,0,0,4-3.1,5.89,5.89,0,0,0,1.69-3.14,5,5,0,0,0-.91-3.46,5.27,5.27,0,0,0-2.32-2.07,5.21,5.21,0,0,0-3.06-.36A17.19,17.19,0,0,0,479.49,606.72Z" transform="translate(-7.29 -7.33)"/><path class="h" d="M528.16,598.59l-11.72,9.13a10.07,10.07,0,0,0,3.63,3,7,7,0,0,0,7.51-.8,9.07,9.07,0,0,0,1.77-1.78,8.09,8.09,0,0,0,1.11-2.13,16.69,16.69,0,0,0,.64-2.35q.22-1.16.52-3.09a2.5,2.5,0,0,1,1-1.42,2.76,2.76,0,0,1,1.89-.66,2.29,2.29,0,0,1,1.68,1,5,5,0,0,1,.84,2.4,9.58,9.58,0,0,1-.3,3.58,13.89,13.89,0,0,1-1.94,4.17,17.67,17.67,0,0,1-4,4.14q-5.77,4.5-11.55,3.7T509.13,611a18.85,18.85,0,0,1-3.05-5.54,13.81,13.81,0,0,1-.73-5.69,12.67,12.67,0,0,1,1.79-5.4,17,17,0,0,1,4.24-4.7,14.78,14.78,0,0,1,7.18-3.21,12.35,12.35,0,0,1,6.75.9,12.76,12.76,0,0,1,5,3.81q1.76,2.26,1,3.94A10.23,10.23,0,0,1,528.16,598.59Zm-14.37,5.73,10.87-8.47a9.24,9.24,0,0,0-5.24-3.31,6.3,6.3,0,0,0-5,1.42,6.08,6.08,0,0,0-2.47,4.41A9.75,9.75,0,0,0,513.78,604.32Z" transform="translate(-7.29 -7.33)"/><path class="h" d="M544.46,596.39,522.33,572a5.12,5.12,0,0,1-1.56-3.24A3.45,3.45,0,0,1,522,566a3.6,3.6,0,0,1,2.84-1,5,5,0,0,1,3.11,1.86l22.12,24.42a4.94,4.94,0,0,1,1.53,3.29,3.61,3.61,0,0,1-1.28,2.71,3.44,3.44,0,0,1-2.81.94A5.05,5.05,0,0,1,544.46,596.39Z" transform="translate(-7.29 -7.33)"/><path class="h" d="M565.15,563.27,555,574.11a10.08,10.08,0,0,0,4,2.36,7,7,0,0,0,7.29-2,9.05,9.05,0,0,0,1.47-2,8.08,8.08,0,0,0,.76-2.28,16.59,16.59,0,0,0,.27-2.42q0-1.18,0-3.13a2.5,2.5,0,0,1,.78-1.56,2.75,2.75,0,0,1,1.76-.94,2.29,2.29,0,0,1,1.81.71,5,5,0,0,1,1.21,2.24,9.59,9.59,0,0,1,.26,3.58,13.89,13.89,0,0,1-1.27,4.42,17.61,17.61,0,0,1-3.26,4.7q-5,5.34-10.83,5.45t-11-4.78a18.9,18.9,0,0,1-3.87-5,13.79,13.79,0,0,1-1.61-5.51,12.69,12.69,0,0,1,.93-5.61,17,17,0,0,1,3.46-5.3,14.78,14.78,0,0,1,6.6-4.29,12.36,12.36,0,0,1,6.81-.16,12.75,12.75,0,0,1,5.51,3q2.09,2,1.59,3.74A10.21,10.21,0,0,1,565.15,563.27Zm-13.31,7.89,9.42-10a9.24,9.24,0,0,0-5.69-2.46,6.29,6.29,0,0,0-4.7,2.18,6.08,6.08,0,0,0-1.76,4.74A9.76,9.76,0,0,0,551.83,571.16Z" transform="translate(-7.29 -7.33)"/><path class="h" d="M593.24,542.45a23.53,23.53,0,0,1-.52,6.2A14.9,14.9,0,0,1,590.2,554a10.94,10.94,0,0,1-3.95,3.48,8.43,8.43,0,0,1-4.54.93,8.12,8.12,0,0,1-4.17-1.54,7.68,7.68,0,0,1-3.15-4.72,9.89,9.89,0,0,1,.79-6.13q.29-.68,1.5-3.35t2-4.61q.81-1.94,1.65-4.29a7.92,7.92,0,0,0-4.28-1.61q-1.77,0-3.74,2.77a9.25,9.25,0,0,0-1.9,4,7.08,7.08,0,0,0,.49,3.45,25.89,25.89,0,0,1,.86,2.44,2.42,2.42,0,0,1-.67,1.8,3.24,3.24,0,0,1-2,1.31,2.68,2.68,0,0,1-2.25-.48,6.44,6.44,0,0,1-2.32-3.43,10.14,10.14,0,0,1,.07-5.41,19.93,19.93,0,0,1,3.4-6.78,21.22,21.22,0,0,1,5.58-5.69A7.33,7.33,0,0,1,579,525a16.36,16.36,0,0,1,6.2,3l3.67,2.67,3.33,2.46a15.27,15.27,0,0,0,4,2,14,14,0,0,1,2.84,1.18,2.8,2.8,0,0,1,1.08,2.14,3.69,3.69,0,0,1-.68,2.58,3.36,3.36,0,0,1-2.25,1.23A16.31,16.31,0,0,1,593.24,542.45Zm-9.2-6a38.24,38.24,0,0,1-1.8,4.69q-1.32,3-1.78,4.16a6,6,0,0,0-.36,2.63,3.21,3.21,0,0,0,1.45,2.43,3.86,3.86,0,0,0,3.15.66,4.84,4.84,0,0,0,3-2.06,8.91,8.91,0,0,0,1.64-3.95,6.59,6.59,0,0,0-.42-3.76q-.79-1.85-4-4.16Z" transform="translate(-7.29 -7.33)"/><path class="h" d="M609.42,503.44a8.81,8.81,0,0,1,4.92,9.47,20.29,20.29,0,0,1-2.39,7,17.76,17.76,0,0,1-4.4,5.61,10.21,10.21,0,0,1-4.79,2.34,6.31,6.31,0,0,1-4-.54,2.92,2.92,0,0,1-1.47-1.79,3,3,0,0,1,.27-2.41,2.62,2.62,0,0,1,1.38-1.35,6.43,6.43,0,0,1,2-.31,8.32,8.32,0,0,0,4-1,8.43,8.43,0,0,0,3-3.45,6.41,6.41,0,0,0,.86-3.78,2.86,2.86,0,0,0-1.37-2.38,3.16,3.16,0,0,0-3.29,0,18.75,18.75,0,0,0-3.89,3.59,41.33,41.33,0,0,1-4.8,4.68,10.51,10.51,0,0,1-4.34,2.15,6.47,6.47,0,0,1-4.5-.72,7.62,7.62,0,0,1-3.17-3.23,9.36,9.36,0,0,1-1-5.07,15.4,15.4,0,0,1,1.94-6.23,21.15,21.15,0,0,1,3-4.39,13.22,13.22,0,0,1,3.29-2.7,8.11,8.11,0,0,1,3.14-1,4.46,4.46,0,0,1,2.55.42,2.83,2.83,0,0,1,1.48,1.78,3.47,3.47,0,0,1-.43,2.59,3,3,0,0,1-1.52,1.44,13,13,0,0,1-2.65.72,6.88,6.88,0,0,0-2.53,1,6.39,6.39,0,0,0-2.08,2.49,6.23,6.23,0,0,0-.83,3.44,2.56,2.56,0,0,0,1.29,2.23,2.36,2.36,0,0,0,2.2,0,8.29,8.29,0,0,0,2.39-1.79q1.24-1.26,3.28-3.55a25,25,0,0,1,4.53-4.13,9.61,9.61,0,0,1,4.09-1.67A6.27,6.27,0,0,1,609.42,503.44Z" transform="translate(-7.29 -7.33)"/><path class="h" d="M616.55,474.11l-4.9,14a10.09,10.09,0,0,0,4.65.52,7,7,0,0,0,5.87-4.75,9.12,9.12,0,0,0,.52-2.46,8.08,8.08,0,0,0-.23-2.39,16.78,16.78,0,0,0-.74-2.32q-.44-1.1-1.24-2.88a2.5,2.5,0,0,1,.08-1.74,2.75,2.75,0,0,1,1.23-1.58,2.3,2.3,0,0,1,1.95-.09,5,5,0,0,1,2,1.56,9.54,9.54,0,0,1,1.69,3.17,13.87,13.87,0,0,1,.63,4.56,17.61,17.61,0,0,1-1.08,5.62q-2.41,6.91-7.7,9.37t-12,.1a18.89,18.89,0,0,1-5.57-3,13.79,13.79,0,0,1-3.7-4.39,12.66,12.66,0,0,1-1.42-5.51,17,17,0,0,1,1-6.25,14.78,14.78,0,0,1,4.29-6.59,12.36,12.36,0,0,1,6.16-2.91,12.78,12.78,0,0,1,6.25.5q2.71.95,3,2.78A10.23,10.23,0,0,1,616.55,474.11Zm-9,12.61,4.54-13a9.24,9.24,0,0,0-6.2.06,6.29,6.29,0,0,0-3.41,3.89,6.08,6.08,0,0,0,.31,5A9.77,9.77,0,0,0,607.58,486.72Z" transform="translate(-7.29 -7.33)"/><path class="h" d="M683,202.89l6.15-8.84a29.11,29.11,0,0,1,4.75-5.47,13.27,13.27,0,0,1,5.51-2.81q8.12-2.12,17.26,4.23a32.64,32.64,0,0,1,5.14,4.35,19.85,19.85,0,0,1,3.36,4.74,17,17,0,0,1,1.62,5.3,14.16,14.16,0,0,1-.11,4.3,16.23,16.23,0,0,1-1.36,4.15,31.84,31.84,0,0,1-2.59,4.35L716.56,226a6.73,6.73,0,0,1-2.5,2.4,3.17,3.17,0,0,1-2.43.13A12.21,12.21,0,0,1,708.8,227l-24.57-17.08a4.34,4.34,0,0,1-1.27-7.05Zm7.2,1.11L712.9,219.8l3.57-5.14q1.18-1.69,1.75-2.71a10,10,0,0,0,.92-2.31,6.58,6.58,0,0,0,.21-2.5q-.51-5.41-7.55-10.3-5-3.45-8.47-3.67a8.11,8.11,0,0,0-5.71,1.51,22.17,22.17,0,0,0-4.36,4.83Z" transform="translate(-7.29 -7.33)"/><path class="h" d="M741.31,172.89l-9.74,11.23a10.1,10.1,0,0,0,4.13,2.2,7,7,0,0,0,7.21-2.24,9.08,9.08,0,0,0,1.39-2.09,8.1,8.1,0,0,0,.67-2.31,16.66,16.66,0,0,0,.17-2.43q0-1.18-.08-3.13a2.5,2.5,0,0,1,.71-1.59,2.76,2.76,0,0,1,1.72-1,2.29,2.29,0,0,1,1.84.64,4.94,4.94,0,0,1,1.29,2.19,9.54,9.54,0,0,1,.4,3.57,13.84,13.84,0,0,1-1.09,4.47,17.65,17.65,0,0,1-3.08,4.83q-4.8,5.53-10.61,5.86T725,188.72a18.9,18.9,0,0,1-4.06-4.85,13.78,13.78,0,0,1-1.82-5.44,12.68,12.68,0,0,1,.71-5.64,17,17,0,0,1,3.25-5.43,14.78,14.78,0,0,1,6.42-4.54,12.37,12.37,0,0,1,6.8-.42,12.78,12.78,0,0,1,5.62,2.78q2.17,1.88,1.73,3.67A10.22,10.22,0,0,1,741.31,172.89Zm-13,8.4,9-10.41a9.24,9.24,0,0,0-5.78-2.23A6.28,6.28,0,0,0,727,171a6.08,6.08,0,0,0-1.57,4.81A9.77,9.77,0,0,0,728.32,181.29Z" transform="translate(-7.29 -7.33)"/><path class="h" d="M745.88,149.47l.63.67a15,15,0,0,1,.63-5.87,10.9,10.9,0,0,1,3-4.46,12.12,12.12,0,0,1,6-3.06,12.46,12.46,0,0,1,7,.71,18.48,18.48,0,0,1,6.85,4.88,20.11,20.11,0,0,1,3.65,5.4A14.45,14.45,0,0,1,775,153.2a11.85,11.85,0,0,1-.91,5,12.05,12.05,0,0,1-3,4.22,10.6,10.6,0,0,1-4.9,2.76,15.65,15.65,0,0,1-5.7,0l7.75,8.37q3.4,3.68.73,6.15a2.92,2.92,0,0,1-3,1,8.13,8.13,0,0,1-3.07-2.29L740.65,154.4a4.78,4.78,0,0,1-1.51-3,3.28,3.28,0,0,1,1.17-2.54,3.42,3.42,0,0,1,2.68-1A4.49,4.49,0,0,1,745.88,149.47Zm18.43-2a13.12,13.12,0,0,0-4.18-3.16,7.56,7.56,0,0,0-4.12-.7,6.09,6.09,0,0,0-3.43,1.6,6.76,6.76,0,0,0-2.21,5.42q.1,3.28,3.37,6.82,3.08,3.33,6.37,3.72a6.7,6.7,0,0,0,5.61-1.76,6.1,6.1,0,0,0,1.83-3.19,7.56,7.56,0,0,0-.34-4.18A13.07,13.07,0,0,0,764.31,147.46Z" transform="translate(-7.29 -7.33)"/><path class="h" d="M781.94,147.13,761.84,121a5.13,5.13,0,0,1-1.3-3.36,3.44,3.44,0,0,1,1.46-2.6,3.6,3.6,0,0,1,2.91-.78,5,5,0,0,1,3,2.1L788,142.5a4.94,4.94,0,0,1,1.26,3.4,3.61,3.61,0,0,1-1.49,2.61,3.43,3.43,0,0,1-2.88.71A5,5,0,0,1,781.94,147.13Z" transform="translate(-7.29 -7.33)"/><path class="h" d="M812,113.67a17.94,17.94,0,0,1,2.43,5.87,13.82,13.82,0,0,1,0,5.8,13.51,13.51,0,0,1-2.38,5.22,16.92,16.92,0,0,1-4.72,4.26,16.46,16.46,0,0,1-5.85,2.35,13.7,13.7,0,0,1-10.93-2.69,17.91,17.91,0,0,1-4.2-4.74,18.16,18.16,0,0,1-2.46-5.92,13.76,13.76,0,0,1,0-5.76,13.38,13.38,0,0,1,2.39-5.2,18.11,18.11,0,0,1,10.57-6.61,13.6,13.6,0,0,1,5.76.13,13.74,13.74,0,0,1,5.18,2.53A18,18,0,0,1,812,113.67Zm-6.46,4q-2.47-3.94-5.58-5a6.65,6.65,0,0,0-6,.73,6.8,6.8,0,0,0-2.71,3.06,7.31,7.31,0,0,0-.41,4.28,15.48,15.48,0,0,0,5.55,8.87,7.48,7.48,0,0,0,4,1.51,6.72,6.72,0,0,0,4-1.1,6.63,6.63,0,0,0,3.28-5.12A11.36,11.36,0,0,0,805.57,117.72Z" transform="translate(-7.29 -7.33)"/><path class="h" d="M830.55,123l-.07-1.83-18.29-17.53a8.77,8.77,0,0,1-2-2.33,3.45,3.45,0,0,1-.3-1.85,3.74,3.74,0,0,1,.7-1.79A3.63,3.63,0,0,1,812,96.5a3,3,0,0,1,2.69-.08,9.63,9.63,0,0,1,2.59,2.11l13.62,14.34-1.69-18.35A30.09,30.09,0,0,1,829,91a3.89,3.89,0,0,1,.46-2A3.45,3.45,0,0,1,831,87.82a3.27,3.27,0,0,1,1.7-.27,3.2,3.2,0,0,1,1.63.62,3.34,3.34,0,0,1,1.07,1.31q.12.53.3,1.52t.26,2.05l1.77,27.71a30.32,30.32,0,0,1,0,5.93,8.24,8.24,0,0,1-1.71,4.07,11.92,11.92,0,0,1-4.51,3.21,13.21,13.21,0,0,1-4.86,1.42,2.64,2.64,0,0,1-2.62-1.71,2.57,2.57,0,0,1-.12-2.17,3.43,3.43,0,0,1,1.84-1.62,4.39,4.39,0,0,1,1.16-.35,5.67,5.67,0,0,0,1.21-.37,4.51,4.51,0,0,0,1.71-1.21,3.6,3.6,0,0,0,.67-1.79A20.77,20.77,0,0,0,830.55,123Z" transform="translate(-7.29 -7.33)"/><path class="h" d="M1094,134.35a21.8,21.8,0,0,1,7.82,8,16.68,16.68,0,0,1,1.89,9.87,25,25,0,0,1-4,10.66,27.26,27.26,0,0,1-5.69,6.57,18.59,18.59,0,0,1-6.84,3.6,16.79,16.79,0,0,1-7.64.29,24.79,24.79,0,0,1-14.43-9.21,17,17,0,0,1-3-7.06,18.59,18.59,0,0,1,.39-7.76,27.29,27.29,0,0,1,3.49-7.91,26.36,26.36,0,0,1,5.76-6.56,18.5,18.5,0,0,1,6.88-3.54,16.92,16.92,0,0,1,7.52-.22A22.46,22.46,0,0,1,1094,134.35Zm-1.33,24a19.14,19.14,0,0,0,2.94-7.33,10.81,10.81,0,0,0-.83-6.41,11.36,11.36,0,0,0-4.3-4.73,11.16,11.16,0,0,0-4.36-1.67,10.06,10.06,0,0,0-4.51.35,13,13,0,0,0-4.46,2.56,20.56,20.56,0,0,0-4.07,4.78,21,21,0,0,0-2.63,5.78,12.88,12.88,0,0,0-.41,5.26,10.42,10.42,0,0,0,1.62,4.31,11.6,11.6,0,0,0,9.12,5,11,11,0,0,0,6.2-1.87A18.94,18.94,0,0,0,1092.72,158.36Z" transform="translate(-7.29 -7.33)"/><path class="h" d="M1115,168.78l-.61.69a15,15,0,0,1,5.91.05,10.9,10.9,0,0,1,4.73,2.55,12.12,12.12,0,0,1,3.63,5.64,12.46,12.46,0,0,1,0,7,18.47,18.47,0,0,1-4.19,7.3,20.09,20.09,0,0,1-5,4.16,14.46,14.46,0,0,1-5.3,1.88,11.84,11.84,0,0,1-5.08-.42,12,12,0,0,1-4.49-2.55,10.59,10.59,0,0,1-3.22-4.61,15.63,15.63,0,0,1-.6-5.67l-7.58,8.53q-3.33,3.74-6.05,1.32a2.92,2.92,0,0,1-1.26-2.85,8.16,8.16,0,0,1,2-3.28l21.78-24.51a4.78,4.78,0,0,1,2.86-1.79,3.27,3.27,0,0,1,2.65.92,3.42,3.42,0,0,1,1.24,2.57A4.49,4.49,0,0,1,1115,168.78Zm3.79,18.15a13.16,13.16,0,0,0,2.74-4.47,7.58,7.58,0,0,0,.29-4.17,6.09,6.09,0,0,0-1.93-3.26,6.76,6.76,0,0,0-5.61-1.67q-3.26.42-6.46,4a10.56,10.56,0,0,0-3.08,6.7,6.7,6.7,0,0,0,2.3,5.41,6.1,6.1,0,0,0,3.35,1.51,7.56,7.56,0,0,0,4.13-.75A13.09,13.09,0,0,0,1118.82,186.93Z" transform="translate(-7.29 -7.33)"/><path class="h" d="M1141.09,214.81l-9.4-11.51a10.09,10.09,0,0,0-2.88,3.7,7,7,0,0,0,1,7.49,9.12,9.12,0,0,0,1.82,1.73,8.1,8.1,0,0,0,2.16,1.06,16.7,16.7,0,0,0,2.36.58q1.17.2,3.1.45a2.49,2.49,0,0,1,1.44,1,2.75,2.75,0,0,1,.7,1.87,2.29,2.29,0,0,1-.94,1.71,4.93,4.93,0,0,1-2.37.9,9.56,9.56,0,0,1-3.59-.21,13.87,13.87,0,0,1-4.22-1.84,17.61,17.61,0,0,1-4.23-3.86q-4.63-5.67-4-11.46t6.2-10.31a18.9,18.9,0,0,1,5.47-3.17,13.78,13.78,0,0,1,5.67-.86,12.66,12.66,0,0,1,5.44,1.67,17,17,0,0,1,4.79,4.13,14.78,14.78,0,0,1,3.38,7.11,12.36,12.36,0,0,1-.74,6.77,12.77,12.77,0,0,1-3.7,5.07q-2.22,1.81-3.92,1.08A10.23,10.23,0,0,1,1141.09,214.81ZM1135,200.57l8.71,10.67a9.24,9.24,0,0,0,3.19-5.32,6.29,6.29,0,0,0-1.54-4.94,6.08,6.08,0,0,0-4.47-2.37A9.76,9.76,0,0,0,1135,200.57Z" transform="translate(-7.29 -7.33)"/><path class="h" d="M1150.26,233.38l-5.46,3.23a4.89,4.89,0,0,1-3.53.83,3.62,3.62,0,0,1-2.4-1.78,3.48,3.48,0,0,1-.37-2.92,5,5,0,0,1,2.43-2.67l18.2-10.78q4.41-2.61,6.29.57a3.09,3.09,0,0,1,.36,3,6.6,6.6,0,0,1-2.57,2.59,13.3,13.3,0,0,1,4.47.6,5.78,5.78,0,0,1,3,2.68,9.8,9.8,0,0,1,1.34,4.61,3.57,3.57,0,0,1-1.58,3.56,3,3,0,0,1-2.46.34,3,3,0,0,1-1.84-1.32,9.54,9.54,0,0,1-.59-2,9.37,9.37,0,0,0-1-2.69,4.14,4.14,0,0,0-2.14-1.9,5.63,5.63,0,0,0-3.08-.09,18.12,18.12,0,0,0-3.94,1.4Q1153.2,231.64,1150.26,233.38Z" transform="translate(-7.29 -7.33)"/><path class="h" d="M1159.37,267.65a23.54,23.54,0,0,1-5-3.73,14.91,14.91,0,0,1-3.16-5,11,11,0,0,1-.86-5.19,8.46,8.46,0,0,1,1.62-4.34,8.12,8.12,0,0,1,3.52-2.72,7.67,7.67,0,0,1,5.67-.16,9.88,9.88,0,0,1,4.77,3.92q.43.61,2,3t2.84,4.15q1.22,1.71,2.76,3.67a7.93,7.93,0,0,0,3.63-2.78q.9-1.52-.36-4.64a9.26,9.26,0,0,0-2.38-3.73,7.06,7.06,0,0,0-3.18-1.41,25.7,25.7,0,0,1-2.53-.57q-.64-.21-1.17-1.52a3.24,3.24,0,0,1-.07-2.36,2.67,2.67,0,0,1,1.6-1.65,6.43,6.43,0,0,1,4.14-.15,10.17,10.17,0,0,1,4.55,2.93,19.94,19.94,0,0,1,3.95,6.48,21.17,21.17,0,0,1,1.86,7.74,7.32,7.32,0,0,1-1.95,5.16,16.38,16.38,0,0,1-5.85,3.65l-4.21,1.69-3.86,1.52a15.27,15.27,0,0,0-3.87,2.33,14.08,14.08,0,0,1-2.51,1.78,2.8,2.8,0,0,1-2.39-.22,3.68,3.68,0,0,1-1.83-1.95,3.36,3.36,0,0,1,.15-2.55A16.32,16.32,0,0,1,1159.37,267.65Zm10-4.59a38.1,38.1,0,0,1-3-4q-1.83-2.7-2.58-3.71a6,6,0,0,0-2-1.7,3.21,3.21,0,0,0-2.83-.05,3.85,3.85,0,0,0-2.23,2.31,4.84,4.84,0,0,0,.16,3.63,8.91,8.91,0,0,0,2.48,3.49,6.59,6.59,0,0,0,3.41,1.64q2,.31,5.65-1.18Z" transform="translate(-7.29 -7.33)"/><path class="h" d="M1188.47,273.45l.21.81,4.42-1.12q1.78-.45,2.82-.61a4.24,4.24,0,0,1,1.87.08,3.43,3.43,0,0,1,1.54.93,3.63,3.63,0,0,1,.93,1.69,3.75,3.75,0,0,1-.41,2.8,3.22,3.22,0,0,1-1.47,1.39,16.1,16.1,0,0,1-2.82.93l-5,1.27.68,2.7a3.57,3.57,0,0,1-.14,2.58,2.52,2.52,0,0,1-1.69,1.3,2.2,2.2,0,0,1-2.37-.65,7.86,7.86,0,0,1-1.45-3.21l-.35-1.38-13.54,3.43a22.65,22.65,0,0,0-2.63.79,2.79,2.79,0,0,0-1.35,1,2.28,2.28,0,0,0-.14,1.86,9.36,9.36,0,0,0,.67,1.7,9.43,9.43,0,0,1,.67,1.67,2.29,2.29,0,0,1-.31,1.79,2.48,2.48,0,0,1-1.59,1.16,3.05,3.05,0,0,1-3.22-1.25,13.55,13.55,0,0,1-2.36-5.34,10,10,0,0,1-.17-5.53,5.55,5.55,0,0,1,2.62-3.15,22.49,22.49,0,0,1,5.34-1.94l14.14-3.58-.25-1a3.62,3.62,0,0,1,.14-2.62,2.54,2.54,0,0,1,1.7-1.32,2.46,2.46,0,0,1,2.13.39A4,4,0,0,1,1188.47,273.45Z" transform="translate(-7.29 -7.33)"/><path class="h" d="M1179.53,318.24l-1.65-14.77a10.09,10.09,0,0,0-4.42,1.54,7,7,0,0,0-3.24,6.82,9,9,0,0,0,.59,2.44,8.08,8.08,0,0,0,1.24,2.06,16.77,16.77,0,0,0,1.67,1.77q.87.8,2.36,2.06a2.49,2.49,0,0,1,.68,1.6,2.74,2.74,0,0,1-.43,2,2.29,2.29,0,0,1-1.72.92,4.94,4.94,0,0,1-2.48-.54,9.57,9.57,0,0,1-2.9-2.13,13.88,13.88,0,0,1-2.54-3.83,17.64,17.64,0,0,1-1.46-5.54q-.81-7.27,2.89-11.78t10.81-5.29a18.89,18.89,0,0,1,6.32.3,13.76,13.76,0,0,1,5.23,2.36,12.66,12.66,0,0,1,3.66,4.35,17,17,0,0,1,1.78,6.07,14.79,14.79,0,0,1-1,7.8,12.35,12.35,0,0,1-4.3,5.28,12.77,12.77,0,0,1-5.85,2.25q-2.85.32-3.87-1.22A10.22,10.22,0,0,1,1179.53,318.24Zm2.64-15.25,1.53,13.69a9.24,9.24,0,0,0,5.56-2.73,6.29,6.29,0,0,0,1.39-5,6.08,6.08,0,0,0-2.47-4.42A9.76,9.76,0,0,0,1182.17,303Z" transform="translate(-7.29 -7.33)"/><path class="h" d="M994.58,647.41l-14.83-22.33,9.38,26.56a5.12,5.12,0,0,1,.18,3.65,3.83,3.83,0,0,1-5.18,1.84,5.06,5.06,0,0,1-2.17-3l-10.76-30.44q-.89-2.52.11-3.86a6.67,6.67,0,0,1,3.23-2.13l2.42-.85a9.75,9.75,0,0,1,3.3-.72,2.82,2.82,0,0,1,2,.9,23.39,23.39,0,0,1,2.25,3l13,19.1-1.86-23a23.3,23.3,0,0,1-.1-3.71,2.81,2.81,0,0,1,1-1.93,9.77,9.77,0,0,1,3-1.51l2.42-.85a6.67,6.67,0,0,1,3.85-.37q1.62.42,2.51,2.93l10.76,30.44a5.12,5.12,0,0,1,.18,3.65,3.56,3.56,0,0,1-2.25,2,3.48,3.48,0,0,1-2.93-.2,5.08,5.08,0,0,1-2.17-3L1002.53,617l2.49,26.69q.24,2.6.25,3.85a5.13,5.13,0,0,1-.69,2.53,4.34,4.34,0,0,1-2.51,1.92,4.4,4.4,0,0,1-4.52-.76,9.14,9.14,0,0,1-1.55-1.74Z" transform="translate(-7.29 -7.33)"/><path class="h" d="M1049.3,614.32a18,18,0,0,1,1.84,6.08,13.83,13.83,0,0,1-.55,5.77,13.49,13.49,0,0,1-2.88,5,16.91,16.91,0,0,1-5.12,3.77,16.42,16.42,0,0,1-6.05,1.77,13.69,13.69,0,0,1-10.61-3.75,17.9,17.9,0,0,1-3.72-5.13,18.14,18.14,0,0,1-1.87-6.13,13.72,13.72,0,0,1,.53-5.74,13.37,13.37,0,0,1,2.89-4.94,18.11,18.11,0,0,1,11.17-5.54,13.47,13.47,0,0,1,10.63,3.72A18,18,0,0,1,1049.3,614.32Zm-6.83,3.4q-2.07-4.16-5.05-5.57a6.64,6.64,0,0,0-6.07.13,6.81,6.81,0,0,0-3,2.78,7.31,7.31,0,0,0-.82,4.22,15.47,15.47,0,0,0,4.65,9.38,7.45,7.45,0,0,0,3.84,1.9,6.71,6.71,0,0,0,4.08-.71,6.63,6.63,0,0,0,3.76-4.78A11.37,11.37,0,0,0,1042.47,617.72Z" transform="translate(-7.29 -7.33)"/><path class="h" d="M1055.15,597.49l.5.77a13.3,13.3,0,0,1,1.54-5.65,11.68,11.68,0,0,1,3.9-4,10.9,10.9,0,0,1,5.21-1.85,8.32,8.32,0,0,1,5,1.16,8.82,8.82,0,0,1,2.46,2,31,31,0,0,1,2.44,3.32l7.75,11.83a5,5,0,0,1,1,3.46,3.47,3.47,0,0,1-1.63,2.46,3.51,3.51,0,0,1-3,.51,5,5,0,0,1-2.76-2.28l-6.94-10.59a12.64,12.64,0,0,0-4-4.24q-2-1.09-4.57.62a6.16,6.16,0,0,0-2.43,3,7,7,0,0,0-.23,4.12,23.81,23.81,0,0,0,3,5.61l5.21,8a4.93,4.93,0,0,1,1,3.49,3.6,3.6,0,0,1-1.68,2.48,3.45,3.45,0,0,1-2.91.48,5,5,0,0,1-2.76-2.29l-12-18.37a4.78,4.78,0,0,1-1-3.23,3.28,3.28,0,0,1,1.58-2.31,3.51,3.51,0,0,1,1.77-.6,3.39,3.39,0,0,1,1.86.48A5,5,0,0,1,1055.15,597.49Z" transform="translate(-7.29 -7.33)"/><path class="h" d="M1075.75,573.36a4,4,0,0,1-2.72.94,3.78,3.78,0,0,1-3.38-4.23,3.88,3.88,0,0,1,1.44-2.5,4,4,0,0,1,2.63-.91,3.37,3.37,0,0,1,2.62,1.43,3.47,3.47,0,0,1,.85,2.83A3.85,3.85,0,0,1,1075.75,573.36Zm7.85,3.75,13.78,17.1a4.9,4.9,0,0,1,1.32,3.37,3.59,3.59,0,0,1-1.41,2.64,3.43,3.43,0,0,1-2.86.77,5.05,5.05,0,0,1-3-2l-13.64-16.92a4.88,4.88,0,0,1-1.32-3.3,3.51,3.51,0,0,1,1.4-2.59,3.64,3.64,0,0,1,2.86-.84A4.42,4.42,0,0,1,1083.6,577.11Z" transform="translate(-7.29 -7.33)"/><path class="h" d="M1087.33,569.14l.61-.57-3.13-3.32q-1.26-1.34-1.91-2.16a4.25,4.25,0,0,1-.84-1.68,3.44,3.44,0,0,1,.06-1.8,3.63,3.63,0,0,1,1-1.63,3.75,3.75,0,0,1,2.65-1,3.23,3.23,0,0,1,1.93.61,16.07,16.07,0,0,1,2.19,2l3.55,3.77,2-1.91a3.56,3.56,0,0,1,2.32-1.13,2.52,2.52,0,0,1,2,.84,2.19,2.19,0,0,1,.59,2.39,7.87,7.87,0,0,1-2.1,2.82l-1,1,9.59,10.16a22.68,22.68,0,0,0,2,1.91,2.79,2.79,0,0,0,1.56.67,2.28,2.28,0,0,0,1.7-.78,9.45,9.45,0,0,0,1.15-1.41,9.34,9.34,0,0,1,1.13-1.39,2.29,2.29,0,0,1,1.71-.6,2.47,2.47,0,0,1,1.79.82,3,3,0,0,1,.47,3.42,13.51,13.51,0,0,1-3.52,4.66,10,10,0,0,1-4.75,2.84,5.55,5.55,0,0,1-4-.76,22.47,22.47,0,0,1-4.29-3.72l-10-10.61-.73.69a3.61,3.61,0,0,1-2.36,1.15,2.54,2.54,0,0,1-2-.85,2.45,2.45,0,0,1-.69-2A4,4,0,0,1,1087.33,569.14Z" transform="translate(-7.29 -7.33)"/><path class="h" d="M1130.71,543.23a17.94,17.94,0,0,1,4.19,4.77,13.84,13.84,0,0,1,1.89,5.48,13.52,13.52,0,0,1-.57,5.71,16.91,16.91,0,0,1-3.1,5.55,16.43,16.43,0,0,1-4.78,4.11,13.71,13.71,0,0,1-11.22,1,17.92,17.92,0,0,1-5.51-3.13,18.16,18.16,0,0,1-4.24-4.81,13.76,13.76,0,0,1-1.89-5.44,13.38,13.38,0,0,1,.59-5.69,18.13,18.13,0,0,1,7.88-9.66,13.46,13.46,0,0,1,11.22-1A18,18,0,0,1,1130.71,543.23Zm-4.81,5.92q-3.61-2.93-6.91-3a6.65,6.65,0,0,0-5.47,2.63,6.81,6.81,0,0,0-1.58,3.77,7.31,7.31,0,0,0,1,4.18,13.89,13.89,0,0,0,3.5,4,13.73,13.73,0,0,0,4.61,2.58,7.45,7.45,0,0,0,4.28.14,6.71,6.71,0,0,0,3.42-2.33,6.63,6.63,0,0,0,1.45-5.91A11.37,11.37,0,0,0,1125.9,549.15Z" transform="translate(-7.29 -7.33)"/><path class="h" d="M1142.31,532.41l5.49,3.19a4.89,4.89,0,0,1,2.45,2.68,3.61,3.61,0,0,1-.39,3,3.48,3.48,0,0,1-2.37,1.75,5,5,0,0,1-3.52-.82l-18.29-10.63q-4.43-2.57-2.57-5.77a3.09,3.09,0,0,1,2.41-1.76,6.61,6.61,0,0,1,3.52,1,13.3,13.3,0,0,1-1.65-4.19,5.78,5.78,0,0,1,.89-3.91,9.78,9.78,0,0,1,3.37-3.42,3.57,3.57,0,0,1,3.88-.36,3,3,0,0,1,1.5,2,3,3,0,0,1-.26,2.25,9.5,9.5,0,0,1-1.46,1.48,9.4,9.4,0,0,0-1.87,2.18,4.13,4.13,0,0,0-.61,2.8,5.64,5.64,0,0,0,1.42,2.73,18.18,18.18,0,0,0,3.14,2.76Q1139.35,530.69,1142.31,532.41Z" transform="translate(-7.29 -7.33)"/></svg>