<svg xmlns="http://www.w3.org/2000/svg" viewBox="0 0 1413.1 1086.1">
  <style>
    .st0{fill:#66499e}.st2{fill:#0bbcd4}.st3{fill:#903e97}.st4{fill:#fff}
  </style>
  <g id="Layer_1">
    <path class="st0" d="M152.9 513.8c3.6-3 0 0 0 0l71.8 16.7-16.4 64.9-.7.6a184.8 184.8 0 0 0-51.1 197.6A182 182 0 0 0 250 898c32.5 15.6 43.3 16.3 80.7 18.5L281 961l32.3 56.2a316.5 316.5 0 0 1-107-28.1 282.2 282.2 0 0 1-145-162c-37.8-107.5 4-236.9 91.6-313.3z"/>
    <path class="st0" d="M346.6 915.7c9-1.7 34.6-6.9 43.3-10 72.3-25.4 117.3-78.8 169.4-140.7l163.5-186.1 13.4 63.3 66.3-1.3L636.6 830c-56.5 67.1-114.9 136.5-213.2 171a282.3 282.3 0 0 1-99.9 16.1l-32.2-53.9 55.3-47.5z"/>
    <path fill="none" d="M709.8 594.9l-3.7 4.3.2.1z"/>
    <path class="st2" d="M524.8 272.9a183.2 183.2 0 0 1 175.3-139.7c49.5-.6 91 18.5 129.8 49 4.9 3.1 11.7 8.3 11.7 8.3l62.3-.3 28.5-43.4c-16.6-20-6.2-9.2-30.2-32.8a284.3 284.3 0 0 0-468.5 111l64.6-15.6 26.5 63.5z"/>
    <path class="st2" d="M846.5 200.7c6.9 19.4 39.3 94.3 39.3 115.5a182.4 182.4 0 0 1-25.2 92.7L817.5 462h129l1.5-2.5a283.5 283.5 0 0 0 38.8-143.3c0-38.9-28.9-128.7-49-162.3l-29.3 46.8h-62z"/>
    <path class="st3" d="M804.9 462.1H693.8l36.1 42.4-26.9 58.6h302.6c45.1 0 79.9 2.3 106.6 5.8l54.9-39.7-27.1-58.3a872 872 0 0 0-134.4-8.8H804.9z"/>
    <path class="st2" d="M729.7 570.5l16.1 62.2h63.4l56.5-69.6h-130z"/>
    <path class="st0" d="M678.2 563.1h15l26.2-57.1-37.4-43.9h-91.2c5.9 28.6 75.3 90.4 87.4 101z"/>
    <path class="st2" d="M538.8 563.1l57.5 62.5 10.2-63.4L683 569l-4.8-5.9c-12.1-10.6-87.8-101-87.4-101h-.4l-6.8-8a412.2 412.2 0 0 0-16.3-18c-8.6-9.2-17.5-18.7-22-26.3a182.7 182.7 0 0 1-23.4-122l-29-65.6-63 14.8a283.4 283.4 0 0 0 26.3 220.3l82.6 105.8z"/>
    <path class="st3" d="M1058.9 915.7c-9-1.7-34.6-6.9-43.3-10-72.3-25.4-117.3-78.8-169.4-140.7l-74.3-89-68 77.5 65.1 76.6c56.5 67.1 114.9 136.5 213.2 171a282.3 282.3 0 0 0 99.9 16.1l-59.8-43.5 36.6-58zM688 577.7l-75.1-6-8.6 63.5 34.5 40.8 67.3-76.8z"/>
    <path class="st3" d="M1265.2 520.8c-27.4-25-68.4-39.5-112.9-47.8l28.4 57.5-55.5 40.2c47.2 7.5 65.3 18.6 71.9 24.7l.7.6a184.8 184.8 0 0 1 51.1 197.6 182 182 0 0 1-93.5 104.4c-32.5 15.6-48.2 22.7-83.2 18.1l-36.7 56.2 62.3 44.1a285 285 0 0 0 246.3-189.3 286.7 286.7 0 0 0-78.9-306.3z"/>
    <path class="st4" d="M842.1 494.5h10.4c2.7 0 5 .3 7 .8a13 13 0 0 1 5.3 2.8c4.1 3.5 6.1 8.8 6.1 16 0 2.4-.2 4.5-.6 6.5a17.5 17.5 0 0 1-5.2 9.5 14.2 14.2 0 0 1-7.5 3.5c-1.4.2-3.1.3-4.9.3h-10.4c-1.5 0-2.5-.2-3.3-.7s-1.2-1.1-1.4-1.9a13 13 0 0 1-.3-3.1v-28.9c0-1.7.4-3 1.2-3.7.6-.8 1.9-1.1 3.6-1.1zm3.1 6.3v26.7h6l3.1-.1 2.3-.5c.8-.3 1.5-.7 2.1-1.2 2.7-2.3 4-6.1 4-11.7 0-3.9-.6-6.8-1.8-8.7-1.2-1.9-2.6-3.2-4.3-3.7-1.7-.5-3.8-.8-6.2-.8h-5.2zm52.6 20.6h-14.3c0 1.7.4 3.1 1 4.4.7 1.3 1.5 2.2 2.6 2.9s2.3 1 3.6 1c.9 0 1.7-.1 2.4-.3.7-.2 1.4-.5 2.1-1l1.9-1.4 2.2-2c.4-.3.9-.5 1.6-.5.8 0 1.4.2 1.8.6.5.4.7 1 .7 1.7s-.3 1.4-.8 2.3c-.5.9-1.3 1.7-2.3 2.6a13 13 0 0 1-3.9 2c-1.6.5-3.4.8-5.5.8-4.7 0-8.4-1.3-11-4s-3.9-6.3-3.9-10.9a16.4 16.4 0 0 1 3.8-10.8c1.2-1.3 2.8-2.3 4.6-3a16.4 16.4 0 0 1 13.4.7 12.2 12.2 0 0 1 6.1 10.6c0 1.8-.5 3-1.6 3.6-1.1.4-2.6.7-4.5.7zm-14.3-4.2h13.3a9.3 9.3 0 0 0-2-5.6 6.3 6.3 0 0 0-4.6-1.9c-1.8 0-3.3.6-4.5 1.9a8.7 8.7 0 0 0-2.2 5.6zm32.6-8.4v.9c1.4-1.7 2.8-2.9 4.3-3.7 1.5-.8 3.2-1.2 5-1.2 2.3 0 4.3.6 6.2 1.7 1.9 1.2 3.4 2.9 4.5 5.1 1.1 2.2 1.7 4.9 1.7 7.9a17.5 17.5 0 0 1-3.6 11 11.4 11.4 0 0 1-3.9 3c-1.5.7-3.1 1-4.9 1-2.1 0-3.9-.4-5.3-1.3-1.4-.8-2.8-2.1-4.1-3.7v11c0 3.2-1.2 4.8-3.5 4.8-1.4 0-2.3-.4-2.7-1.2-.4-.8-.7-2-.7-3.6v-31.6c0-1.4.3-2.4.9-3.1.6-.7 1.4-1 2.5-1 1 0 1.9.4 2.5 1.1.7.6 1.1 1.6 1.1 2.9zm14.3 10.7c0-1.9-.3-3.6-.9-5a6.8 6.8 0 0 0-2.5-3.2 6 6 0 0 0-3.5-1.1c-2 0-3.7.8-5.1 2.4-1.4 1.6-2.1 3.9-2.1 7 0 2.9.7 5.2 2.1 6.8a6.5 6.5 0 0 0 5.1 2.4c1.2 0 2.3-.4 3.4-1.1s1.9-1.8 2.5-3.2c.7-1.3 1-3 1-5zm13.3 10.5v-31.8c0-1.5.3-2.6 1-3.3s1.5-1.1 2.6-1.1 2 .4 2.7 1.1c.7.7 1 1.9 1 3.3V530c0 1.5-.3 2.6-1 3.3s-1.6 1.1-2.7 1.1-1.9-.4-2.6-1.2c-.7-.6-1-1.7-1-3.2zm42.3-10.4a15 15 0 0 1-4 10.8 11.9 11.9 0 0 1-4.6 3 16.4 16.4 0 0 1-12 0 12 12 0 0 1-4.6-3.1 14.5 14.5 0 0 1-4-10.7 14.9 14.9 0 0 1 3.9-10.8c1.3-1.3 2.8-2.3 4.6-3a16.4 16.4 0 0 1 12 0c1.8.7 3.4 1.7 4.6 3.1a12 12 0 0 1 2.9 4.7c.9 1.8 1.2 3.8 1.2 6zm-7.3 0c0-3-.7-5.3-2-7a6.3 6.3 0 0 0-5.3-2.5 7 7 0 0 0-3.8 1.1 6.6 6.6 0 0 0-2.5 3.3c-.6 1.5-.9 3.1-.9 5.1 0 1.9.3 3.6.9 5 .6 1.4 1.4 2.5 2.5 3.3s2.4 1.1 3.8 1.1c2.2 0 4-.8 5.3-2.5 1.3-1.6 2-4 2-6.9zm19.1 15.8l.7-1.6-9-22.7a7.5 7.5 0 0 1-.8-2.8c0-.6.2-1.2.5-1.7s.8-1 1.3-1.3a4 4 0 0 1 1.8-.5c1.1 0 1.9.3 2.4 1s1 1.6 1.4 2.9l6.2 18 5.9-16.8 1.3-3.2c.4-.8.8-1.3 1.2-1.6s1-.4 1.8-.4a3 3 0 0 1 1.6.4c.5.3.9.7 1.2 1.2.3.5.4 1 .4 1.6l-.3 1.5-.6 1.9-9.6 25c-.8 2.2-1.6 3.9-2.4 5.2a7.8 7.8 0 0 1-3.1 2.9c-1.3.7-3 1-5.3 1-2.1 0-3.8-.2-4.8-.7s-1.6-1.3-1.6-2.6c0-.8.3-1.5.8-1.9.5-.5 1.3-.7 2.3-.7l1.2.2 1.2.2a4 4 0 0 0 2-.4 4 4 0 0 0 1.3-1.3c.1-.7.5-1.6 1-2.8zM1319.9 671a20 20 0 0 1 .3 10.8c-.8 3.3-2.5 6-5.1 8.3a27.3 27.3 0 0 1-18.1 6c-2.6-.1-5-.8-7.2-1.9a15.2 15.2 0 0 1-5.6-4.8 21.3 21.3 0 0 1-3.5-7.6c-.8-3-1-5.8-.7-8.4a16.8 16.8 0 0 1 7.8-12.3c2.2-1.5 4.8-2.6 7.6-3.3 2.9-.8 5.7-1.1 8.4-.9a16.8 16.8 0 0 1 12.7 6.8c1.4 1.9 2.6 4.4 3.4 7.3zm-16.6 16.2a17 17 0 0 0 6.9-3.3 10 10 0 0 0 3.6-5.1c.6-1.9.6-4 0-6.2a10 10 0 0 0-5.4-6.7c-1.4-.6-3-1-4.8-1.1a21.3 21.3 0 0 0-11.6 3.1 11.2 11.2 0 0 0-5.4 7.6 10 10 0 0 0 .3 4.5 10.2 10.2 0 0 0 8.5 7.7c2.2.5 4.8.3 7.9-.5zm9.1 21.7l-.9.1c1.8 1.2 3.3 2.5 4.2 3.8s1.6 3 1.8 4.9a11.7 11.7 0 0 1-5.6 11.5 18 18 0 0 1-7.7 2.6c-2.2.3-4.3.2-6.3-.2-1.9-.4-3.6-1.1-5-2.1a11.7 11.7 0 0 1-4.4-13.7c.7-1.5 1.7-3 3.2-4.5l-10.9 1.3c-3.2.4-4.9-.6-5.2-2.9-.2-1.4.2-2.3.9-2.9a9 9 0 0 1 3.5-1.1l31.4-3.6c1.4-.2 2.5 0 3.2.5.8.5 1.2 1.3 1.3 2.4.1 1-.1 1.9-.8 2.6-.4.7-1.4 1.2-2.7 1.3zm-9 15.5c1.9-.2 3.5-.7 4.8-1.5a7.1 7.1 0 0 0 2.9-2.8c.6-1.1.9-2.3.7-3.6-.2-2-1.2-3.6-3-4.8-1.7-1.2-4.2-1.6-7.2-1.3a10 10 0 0 0-6.5 2.8 6.1 6.1 0 0 0-1.8 5.4c.1 1.2.6 2.3 1.4 3.2s2 1.7 3.4 2.1c1.6.6 3.3.8 5.3.5zm-1.2 34.3l.2-14.3c-1.7 0-3.1.3-4.4.9-1.3.6-2.3 1.5-2.9 2.6s-1 2.3-1 3.6a8.8 8.8 0 0 0 1.2 4.5l1.4 1.9 2 2.3c.3.4.5.9.5 1.6 0 .8-.2 1.4-.6 1.8-.4.5-1 .7-1.8.7-.7 0-1.4-.3-2.3-.8a8 8 0 0 1-2.5-2.4 15.6 15.6 0 0 1-2.7-9.5c.1-4.7 1.5-8.3 4.2-10.9s6.4-3.8 11-3.8c2.2 0 4.2.4 6 1.1 1.8.7 3.4 1.6 4.7 2.9 1.3 1.3 2.3 2.8 3 4.6a16.4 16.4 0 0 1-.9 13.3c-1.2 2-2.8 3.5-4.8 4.5-1.9 1-3.9 1.5-5.9 1.4-1.8 0-3-.6-3.6-1.6-.6-1-.8-2.5-.8-4.4zm4.4-14.3l-.2 13.3c2.5-.1 4.4-.8 5.7-1.9a5.9 5.9 0 0 0 1.9-4.6c0-1.8-.6-3.3-1.8-4.5a9.6 9.6 0 0 0-5.6-2.3zm-8.7 33.7l-6.1-.8c-1.5-.2-2.5-.7-3.2-1.5-.6-.8-.9-1.7-.8-2.8a3 3 0 0 1 1.5-2.4c.8-.6 2-.8 3.4-.6l20.2 2.7c3.3.4 4.7 1.8 4.4 4.2-.2 1.2-.7 2-1.5 2.5-.8.4-2 .6-3.5.4 1.4 1.1 2.4 2.1 3 3.1s.9 2.3.7 3.8a10 10 0 0 1-1.7 4.3c-1 1.3-2.1 1.9-3.3 1.8-.9-.1-1.6-.5-2.1-1.2s-.7-1.4-.6-2.1c0-.3.3-.9.7-1.9.5-1 .7-1.9.8-2.6.1-1.1 0-2-.5-2.7a5.6 5.6 0 0 0-2.3-1.9 36 36 0 0 0-9.1-2.3zm-12.9 31.8c-.9-2.1-1.5-4-1.8-5.7a14 14 0 0 1 .3-5.7c.5-1.8 1.2-3.3 2.3-4.5a9 9 0 0 1 3.7-2.5c1.4-.4 2.8-.5 4.3-.1 1.9.5 3.5 1.5 4.5 3.1a9.2 9.2 0 0 1 1.5 5.8l-.1 3.5-.1 4.8.1 4.4c1.9.4 3.4.3 4.4-.1 1-.5 1.8-1.7 2.4-3.8.5-1.8.5-3.2.3-4.3-.3-1-.8-2-1.7-2.9-.8-.9-1.4-1.5-1.6-1.9-.3-.3-.3-1-.1-1.9.2-.8.6-1.4 1.3-1.9s1.4-.6 2.2-.4a6 6 0 0 1 3.3 2.2c1 1.2 1.6 2.8 1.9 4.9s.1 4.5-.6 7.3a23 23 0 0 1-2.9 7.1 7 7 0 0 1-4.5 2.9c-1.8.3-4 .2-6.6-.5l-4.2-1.1-3.9-1a15 15 0 0 0-4.3-.4 14 14 0 0 1-3 0c-.7-.2-1.3-.7-1.7-1.5-.4-.8-.5-1.7-.3-2.6.2-.7.7-1.4 1.6-1.9l3.3-1.3zm10.4 2.1l-.1-4.8.1-4.4a6 6 0 0 0-.6-2.5 3 3 0 0 0-2.2-1.6 3.8 3.8 0 0 0-3.1.5c-1 .6-1.6 1.6-1.9 2.9a8.1 8.1 0 0 0 1.7 7.3 11 11 0 0 0 5.1 2.3l1 .3zm9.4 18.5l-.3.8 4.1 1.5 2.6 1c.6.3 1.1.6 1.4 1.1.4.4.6 1 .7 1.6.1.6.1 1.2-.2 1.9-.3.9-.9 1.5-1.8 2-.6.3-1.3.4-1.9.3l-2.8-.8-4.7-1.7-.9 2.5a4 4 0 0 1-1.5 2c-.6.3-1.3.4-2.1.1-.9-.3-1.4-.9-1.5-1.8s.1-2 .6-3.3l.5-1.3-12.7-4.6-2.5-.8c-.6-.1-1.2-.1-1.6.1-.5.2-.9.7-1.1 1.4l-.4 1.7a6 6 0 0 1-.4 1.7c-.2.6-.6 1-1.2 1.3-.6.3-1.2.3-1.9.1-1.1-.4-1.7-1.3-1.9-2.7s.2-3.3 1-5.5 1.7-3.7 2.9-4.5c1.1-.8 2.4-1.2 3.8-1.1s3.2.6 5.3 1.3l13.2 4.8.3-.9c.4-1 .9-1.7 1.5-2 .7-.3 1.4-.4 2.1-.1.7.3 1.2.8 1.5 1.5.4.4.3 1.3-.1 2.4zm-30.8 31l6.3-12.9a9 9 0 0 0-4.4-1c-1.4 0-2.7.4-3.7 1.1a6.8 6.8 0 0 0-2.5 2.8 7 7 0 0 0-.8 2.3c-.1.7-.2 1.5-.1 2.3l.4 2.3.8 2.9c.1.5 0 1-.3 1.7s-.8 1.1-1.4 1.4c-.6.2-1.2.2-1.9-.1-.6-.3-1.2-.9-1.7-1.7-.6-.9-1-1.9-1.2-3.2-.3-1.3-.3-2.8-.1-4.4.2-1.7.8-3.4 1.7-5.3 2.1-4.2 4.9-6.9 8.5-8.1 3.6-1.2 7.4-.7 11.5 1.3 1.9 1 3.6 2.1 5 3.5a12.2 12.2 0 0 1 3.7 10 17 17 0 0 1-1.7 5.9 14.2 14.2 0 0 1-4.9 5.8c-2 1.3-4.1 2-6.2 2.1-2.2.1-4.1-.3-5.9-1.2-1.7-.8-2.5-1.8-2.5-3s.5-2.8 1.4-4.5zm10.1-11l-5.9 11.9c2.3.9 4.3 1.2 5.9.7a6 6 0 0 0 3.7-3.3 6 6 0 0 0 .3-4.9 9.1 9.1 0 0 0-4-4.4zm-525-86.7l14-21.8-19.8 18.6c-1.1 1-2.1 1.6-3.2 1.6-1 0-1.9-.4-2.7-1.2a3.5 3.5 0 0 1-1-2.7c.1-1 .7-2 1.8-3.1L771 734c1.3-1.2 2.4-1.6 3.5-1.4a6 6 0 0 1 3.1 2l1.7 1.8c1 1.1 1.7 2 1.9 2.6.3.7.3 1.4 0 2.1l-1.7 3.1-11.8 18.9 19.6-10.6c1.4-.8 2.5-1.3 3.2-1.5a3 3 0 0 1 2.1.1c.7.3 1.5 1 2.5 2.1l1.7 1.8c1 1.1 1.7 2.2 1.8 3.3.2 1.1-.4 2.2-1.6 3.4L774.3 783c-1.1 1-2.1 1.6-3.2 1.6a3.7 3.7 0 0 1-3.7-3.9c.1-1 .7-2 1.8-3.1L789 759l-22.6 12.6-3.3 1.7a5 5 0 0 1-2.5.4c-.9-.1-1.8-.6-2.7-1.5-.6-.7-1-1.4-1.2-2.1-.1-.7-.1-1.5.1-2.2.2-.7.5-1.4.9-2l1.4-2.1zm46.8 37.7a18.2 18.2 0 0 1-5.1 3.4 13.2 13.2 0 0 1-10.9-.2c-1.7-.8-3.4-2-4.9-3.7a15.9 15.9 0 0 1-3.3-5.1 13 13 0 0 1-.9-5.5c.1-1.9.6-3.7 1.4-5.4a18.6 18.6 0 0 1 8.8-8.3 13 13 0 0 1 10.8.2 18.2 18.2 0 0 1 8.3 8.7c.7 1.8 1 3.6 1 5.5-.1 1.8-.6 3.6-1.4 5.4a20 20 0 0 1-3.8 5zm-5-5.4c2.2-2 3.4-4.1 3.7-6.2.3-2.1-.3-4-1.8-5.6a7 7 0 0 0-3.4-2 6.5 6.5 0 0 0-4.1.4c-1.5.6-2.9 1.5-4.3 2.8a14.3 14.3 0 0 0-3.1 4.1 7.6 7.6 0 0 0-.7 4.1c.2 1.3.8 2.5 1.8 3.6a6.3 6.3 0 0 0 5.5 2.1c2.1-.2 4.2-1.3 6.4-3.3zm21.4 7l-.6.6c2.1-.2 4-.1 5.6.5 1.6.6 3.1 1.6 4.5 3 1.3 1.4 2.2 3 2.6 4.6.4 1.7.3 3.3-.3 4.9-.3 1-.8 1.9-1.5 2.7l-2.7 2.9-9.9 9.3c-1.1 1-2.1 1.5-3.1 1.5s-1.9-.4-2.6-1.1a3.5 3.5 0 0 1-1-2.7c.1-1 .7-2 1.7-3l8.9-8.4c1.8-1.7 2.9-3.2 3.4-4.5.5-1.4 0-2.8-1.4-4.2-.9-1-2-1.6-3.3-1.8s-2.6-.1-4 .5c-1 .5-2.7 1.8-4.8 3.8l-6.7 6.3c-1.1 1-2.1 1.5-3.1 1.5s-1.9-.4-2.6-1.2c-.7-.8-1-1.7-.9-2.7.1-1 .7-2 1.7-3l15.4-14.5c1-1 2-1.4 2.9-1.5.9 0 1.7.3 2.5 1.1.4.5.7 1 .9 1.6.1.6.1 1.2-.1 1.8s-.8 1.4-1.5 2zm23.1 24.8L830 842.4c-1.1 1-2.1 1.5-3.1 1.5s-1.9-.4-2.6-1.2a3.5 3.5 0 0 1-1-2.7c.1-1 .7-2 1.7-3l15.3-14.4c1.1-1 2.1-1.5 3.1-1.5s1.9.4 2.6 1.2c.7.8 1.1 1.7 1 2.7-.1 1-.6 2-1.6 2.9zm3.1-7.9a3.5 3.5 0 0 1 .1-5.2c.8-.7 1.6-1 2.6-.9s1.8.5 2.5 1.2c.6.7 1 1.5 1.1 2.5s-.3 1.8-1.2 2.6c-.8.8-1.7 1.1-2.7 1-.9 0-1.7-.4-2.4-1.2zm5 11.3l.6.6 3.2-3 2.1-1.8a4 4 0 0 1 1.6-.8c.6-.1 1.1-.1 1.7.1a4 4 0 0 1 1.6 1c.6.7 1 1.5 1 2.6 0 .7-.2 1.3-.6 1.9-.4.6-1 1.3-1.9 2.1l-3.6 3.4 1.8 2c.7.8 1.1 1.5 1.1 2.2 0 .7-.3 1.4-.8 1.9-.7.7-1.5.9-2.3.6s-1.7-1-2.7-2l-.9-1-9.8 9.2-1.8 1.9c-.4.5-.6 1-.7 1.5 0 .5.2 1.1.7 1.6.3.3.7.7 1.4 1.1l1.3 1.1c.4.4.6 1 .6 1.7s-.3 1.2-.8 1.7c-.9.8-2 1-3.3.4s-2.8-1.6-4.5-3.4c-1.6-1.7-2.5-3.2-2.7-4.6-.2-1.4 0-2.7.7-3.9.7-1.2 1.9-2.6 3.6-4.1l10.3-9.6-.7-.7c-.7-.8-1.1-1.5-1.1-2.3 0-.7.3-1.4.8-1.9.6-.5 1.2-.7 2-.7s1.3.4 2.1 1.2zm21.4 43.6a18.2 18.2 0 0 1-5.1 3.4 13.2 13.2 0 0 1-10.9-.2c-1.7-.8-3.4-2-4.9-3.7a15.9 15.9 0 0 1-3.3-5.1 13 13 0 0 1-.9-5.5c.1-1.9.6-3.7 1.4-5.4a18.6 18.6 0 0 1 8.8-8.3 13 13 0 0 1 10.8.2 18.2 18.2 0 0 1 8.3 8.7c.7 1.8 1 3.6 1 5.5a15.4 15.4 0 0 1-5.2 10.4zm-5-5.3c2.2-2 3.4-4.1 3.7-6.2.3-2.1-.3-4-1.8-5.6a7 7 0 0 0-3.4-2 6.5 6.5 0 0 0-4.1.4c-1.5.6-2.9 1.5-4.3 2.8-1.4 1.3-2.4 2.7-3.1 4.1s-.9 2.8-.7 4.1.8 2.5 1.8 3.6a6.3 6.3 0 0 0 5.5 2.1c2.1-.2 4.2-1.3 6.4-3.3zm10.8 17.8l-4.5 4.2c-1.1 1-2.1 1.5-3.2 1.5-1 0-1.9-.4-2.6-1.2a4 4 0 0 1-1-2.7c.1-1 .7-2 1.7-3l14.9-14c2.4-2.3 4.4-2.5 6-.8.8.9 1.2 1.8 1 2.7-.2.9-.8 1.9-1.9 3 1.7-.4 3.1-.5 4.3-.4 1.2.1 2.3.8 3.4 1.9s1.8 2.5 2.2 4.1c.4 1.6.2 2.8-.7 3.7-.7.6-1.4.9-2.3.8-.8-.1-1.5-.3-2-.9l-1-1.8c-.5-1-1-1.8-1.5-2.3a3.6 3.6 0 0 0-2.4-1.3c-.9-.1-1.8.1-2.9.6s-2.2 1.2-3.4 2.1l-4.1 3.8zM548.1 879l-8.2 8.8c-1.2 1.3-2.3 1.9-3.4 1.9s-2.2-.6-3.5-1.7l-21.7-20.1c-1.3-1.2-1.9-2.3-2-3.4 0-1.1.5-2.2 1.7-3.5l8.7-9.4c1.3-1.4 2.5-2.5 3.6-3.3a9 9 0 0 1 3.5-1.8c1-.3 2.1-.4 3.2-.4a9.5 9.5 0 0 1 6 2.5c2.9 2.7 3.7 6.1 2.3 10.2 4.7-2.7 8.8-2.4 12.3.8a10.9 10.9 0 0 1 3 11.3c-.4 1.2-1.1 2.5-2 3.8-.9 1.3-2.1 2.7-3.5 4.3zm-30.5-16.2l7.5 6.9 5-5.4c1.4-1.5 2.3-2.7 2.7-3.8.5-1.1.5-2.1.1-3.3-.2-.8-.7-1.6-1.4-2.2-1.5-1.4-2.9-1.7-4.3-1.1-1.4.6-3.1 2-5.1 4.1l-4.5 4.8zm17.3 4.7l-5.6 6.1 8.4 7.8 5.8-6.3c3.7-4 4.1-7.3 1.2-9.9-1.5-1.4-3-1.8-4.6-1.4a12 12 0 0 0-5.2 3.7zm38.7-21.2l-.7-.6c.2 1.4.3 2.7.2 3.9a10.6 10.6 0 0 1-3.2 6.8c-1.2 1.3-2.6 2.2-4 2.7s-3 .6-4.4.3c-1.8-.4-3.7-1.6-5.9-3.6l-10.7-9.9c-1.1-1-1.7-2-1.7-3s.2-1.9 1-2.7c.8-.8 1.6-1.2 2.6-1.2s2 .5 3.1 1.5l8.6 8c1.2 1.2 2.4 2 3.4 2.6a5 5 0 0 0 3 .7c1-.1 1.9-.6 2.8-1.5a6.4 6.4 0 0 0 1.1-7c-.5-1-2-2.7-4.6-5.1l-6.5-6.1c-1.1-1-1.6-2-1.7-3-.1-1 .3-1.9 1-2.7.7-.8 1.6-1.2 2.6-1.2s2 .5 3.1 1.5l15.6 14.4c1 .9 1.6 1.9 1.7 2.8a3 3 0 0 1-.9 2.5c-.7.7-1.5 1.1-2.5 1.1-1.1.2-2-.3-3-1.2zm-9.2-32.9a4 4 0 0 1-2.5 1.3c-1 .1-1.8-.2-2.7-1a3.3 3.3 0 0 1-1.1-2.6 4 4 0 0 1 1-2.6c.6-.7 1.4-1.1 2.4-1.2.9-.1 1.8.2 2.7 1a3.5 3.5 0 0 1 .2 5.1zm8 2.5l15.5 14.4c1.1 1 1.7 2 1.7 3 .1 1-.2 1.9-1 2.7a3 3 0 0 1-2.6 1.1c-1 0-2.1-.5-3.1-1.5l-15.4-14.3c-1.1-1-1.6-2-1.7-3-.1-1 .2-1.9 1-2.7.7-.8 1.6-1.2 2.6-1.2 1.1.2 2.1.6 3 1.5zm20.7 8.9l-23.3-21.6c-1.1-1-1.7-2-1.8-3s.2-1.9 1-2.7c.8-.8 1.6-1.2 2.6-1.2s2.1.5 3.1 1.5l23.3 21.6c1.1 1 1.7 2 1.8 3s-.3 1.9-1 2.7a3 3 0 0 1-2.6 1.1c-1 0-2-.5-3.1-1.4zm24-25.5l-.5-.5c.2 1.5.2 2.8 0 4a10 10 0 0 1-.9 3.4c-.5 1.1-1.2 2.1-2.1 3.1a11.1 11.1 0 0 1-9.1 3.5c-1.8-.1-3.5-.6-5.3-1.5-1.7-.9-3.4-2-5-3.5a15.9 15.9 0 0 1-5.6-9.7 11 11 0 0 1 3.2-9.1c1.4-1.5 2.9-2.6 4.4-3.2 1.5-.6 3.3-.9 5.3-.8l-7.9-7.4c-1.1-1-1.7-2-1.9-3-.2-1 .1-1.9.9-2.7s1.6-1.2 2.5-1.2c.9 0 1.9.5 2.9 1.5l23.7 22c1 .9 1.6 1.9 1.6 2.8s-.2 1.8-.9 2.5-1.5 1.1-2.5 1.1c-.8.1-1.8-.4-2.8-1.3zm-17.7 3.2a12 12 0 0 0 4.4 2.8 7 7 0 0 0 4 .3c1.2-.3 2.3-.9 3.2-1.9a6.5 6.5 0 0 0 1.2-7.3c-.6-1.4-1.6-2.8-3.2-4.2-1.4-1.3-2.9-2.2-4.3-2.7s-2.8-.6-4.1-.3c-1.3.3-2.4.9-3.2 1.9-.9 1-1.4 2.1-1.6 3.4-.2 1.3.1 2.6.7 4a9.7 9.7 0 0 0 2.9 4zm-490.9 15.4l5.2 7 23-16.9c1.3-1 2.5-1.4 3.6-1.3 1.1.1 2 .6 2.6 1.6.7 1 .9 2 .7 3-.2 1.1-1 2.1-2.3 3.1l-23 16.9 5.2 7c.8 1.1 1.2 2.1 1.1 3a3 3 0 0 1-1.3 2.2c-.8.6-1.7.8-2.6.6-.9-.2-1.7-.8-2.5-1.9l-15-20.4c-.8-1.1-1.2-2.1-1.1-3a3 3 0 0 1 1.3-2.2c.8-.6 1.6-.8 2.5-.6.9.2 1.8.8 2.6 1.9zm5.1-35.4l5.9 13.1c1.5-.7 2.7-1.6 3.6-2.7s1.4-2.3 1.5-3.6a7.8 7.8 0 0 0-1.9-5.8 8 8 0 0 0-1.7-1.5l-2.1-1.1-2.8-1.2c-.4-.2-.8-.6-1.1-1.3-.3-.7-.4-1.3-.2-1.9.2-.6.6-1 1.3-1.4.6-.3 1.4-.4 2.4-.2 1 .1 2.1.5 3.3 1.1 1.2.6 2.3 1.5 3.5 2.8 1.1 1.2 2.1 2.8 3 4.6 1.9 4.3 2.2 8.2.9 11.7a15.3 15.3 0 0 1-8.3 8.1c-2 .9-3.9 1.4-5.9 1.6a12.5 12.5 0 0 1-10.2-3.5c-1.4-1.4-2.5-3-3.4-5-1.2-2.6-1.6-5.1-1.4-7.5s1-4.4 2.4-6.1c1.3-1.7 2.9-3 4.7-3.8 1.7-.8 3-.8 3.9 0s1.8 1.8 2.6 3.6zm2.1 14.7l-5.5-12.1a9.2 9.2 0 0 0-4.3 4.2c-.7 1.6-.6 3.2.2 5a5.6 5.6 0 0 0 3.6 3.3 9 9 0 0 0 6-.4zm-6.9-50.9c2-.3 3.8-.2 5.4.6 1.6.7 2.9 2 4 3.7 1.1 1.8 1.8 4 2.3 6.7.4 2.6.4 4.9 0 6.9-.5 2-1.2 3.5-2.3 4.6a5.9 5.9 0 0 1-3.4 1.9 3 3 0 0 1-2.2-.5 2.7 2.7 0 0 1-1.2-2c-.1-.8 0-1.4.3-1.8l1.4-1.4c1.2-1 2-2 2.4-3.2.5-1.1.5-2.6.2-4.4a6.8 6.8 0 0 0-1.6-3.4c-.8-.8-1.6-1.1-2.5-1-1.3.2-2.1.9-2.5 1.9s-.7 2.7-.8 5c-.2 2.6-.5 4.7-.9 6.4-.4 1.7-1.1 3.1-2 4.2a6.2 6.2 0 0 1-3.9 2.1c-1.4.3-2.9.1-4.3-.6-1.4-.6-2.7-1.7-3.7-3.3s-1.8-3.5-2.2-5.9c-.3-1.9-.4-3.6-.3-5.1.1-1.6.4-2.9.9-4a9 9 0 0 1 1.8-2.7c.7-.7 1.4-1.1 2.2-1.2.8-.1 1.6 0 2.2.5.6.5 1 1.2 1.2 2.2.1.7 0 1.4-.3 2-.3.6-.9 1.3-1.6 2.1-.6.7-1.1 1.4-1.4 2.2-.3.8-.3 1.9-.1 3.1a6 6 0 0 0 1.4 3.1c.7.8 1.5 1.1 2.3.9.8-.1 1.3-.6 1.7-1.3.4-.7.6-1.6.8-2.8l.4-4.6c.2-2.3.5-4.3 1-5.8a8.8 8.8 0 0 1 2.1-3.7c.7-.6 1.8-1.2 3.2-1.4zM89.5 739v-.8l-4.4-.2-2.8-.2c-.7-.1-1.2-.3-1.7-.6a3 3 0 0 1-1.2-1.3 3.7 3.7 0 0 1 .7-4.3c.5-.5 1.1-.8 1.7-.9l2.9-.1 5 .2.1-2.7c0-1 .3-1.8.8-2.3.5-.5 1.2-.8 1.9-.7 1 0 1.7.5 2 1.3.4.8.5 1.9.5 3.4l-.1 1.4 13.5.5h2.6c.6 0 1.1-.3 1.5-.6.4-.3.6-.9.6-1.7 0-.4 0-1-.2-1.8l-.2-1.7c0-.6.3-1.1.8-1.6a2 2 0 0 1 1.8-.6c1.2 0 2.1.7 2.6 2 .6 1.3.8 3.2.7 5.6-.1 2.3-.5 4-1.4 5.2a5 5 0 0 1-3.3 2.2c-1.4.3-3.2.4-5.5.3l-14.1-.6v1c0 1.1-.3 1.9-.8 2.4s-1.2.8-1.9.8c-.8 0-1.4-.3-1.9-.9l-.2-2.7zm488.7-215.6l2.1 1.9 8.5-9.3c1.1-1.2 2.2-1.9 3.3-2 1.1-.1 2 .3 2.9 1.1.9.9 1.4 1.8 1.4 2.9 0 1.1-.6 2.2-1.7 3.4l-20.4 22.4c-1.2 1.3-2.3 1.9-3.4 2-1.1.1-2.3-.5-3.5-1.7l-9.6-8.7a31.9 31.9 0 0 1-3.2-3.3c-.8-1-1.5-2-1.9-3a8.6 8.6 0 0 1-.9-3.9 10.8 10.8 0 0 1 2.9-7.4c2-2.2 4.2-3.3 6.6-3.5 2.4-.2 5.1.6 8.1 2.3-.5-1.5-.8-3.2-.8-5.2s.2-3.9.6-5.8a38 38 0 0 1 1.3-4.9c.5-1.4.9-2.2 1.2-2.6.4-.4.8-.7 1.4-.8.6-.2 1.2-.1 1.8 0s1.2.5 1.8 1c.7.6 1.1 1.3 1.2 2 .2.7.2 1.5.1 2.2l-.6 3.3-1.2 6.1c-.5 2.2-.7 4-.7 5.4 0 1.4.2 2.5.6 3.4.4.8 1.1 1.8 2.1 2.7zm-14.5 9.2l5.4 5 7.3-8-5.3-4.8a17.7 17.7 0 0 0-3.9-2.9 6.3 6.3 0 0 0-3.4-.8c-1 .1-2 .7-3 1.7-.7.8-1.2 1.7-1.3 2.7-.2 1 0 2 .4 2.9.6.9 1.8 2.3 3.8 4.2zm-16.1-46.2l9.7 10.6a10 10 0 0 0 2.6-3.7c.5-1.3.6-2.6.4-3.9a7.5 7.5 0 0 0-1.7-3.3c-.6-.6-1.2-1.2-1.9-1.6-.6-.4-1.4-.7-2.1-.9-.8-.2-1.6-.4-2.3-.4l-3-.3a2 2 0 0 1-1.4-.9c-.5-.6-.8-1.1-.8-1.8 0-.6.3-1.2.8-1.7.5-.4 1.2-.8 2.2-1s2.2-.2 3.5 0c1.3.2 2.7.7 4.2 1.5s2.9 2 4.3 3.5c3.2 3.5 4.7 7.1 4.4 10.8a15 15 0 0 1-5.4 10.3 18.2 18.2 0 0 1-5.1 3.4c-1.8.8-3.6 1.2-5.4 1.1s-3.6-.5-5.3-1.3a16.7 16.7 0 0 1-8.4-10.4 12.3 12.3 0 0 1 3.6-11.7c1.4-1.2 2.6-1.7 3.7-1.3.9.7 2.1 1.6 3.4 3zm6.6 13.4l-9-9.8c-1.7 1.8-2.7 3.6-2.8 5.3s.5 3.3 1.8 4.7c1.2 1.3 2.7 2 4.4 2 1.7 0 3.6-.7 5.6-2.2zM527.9 456a9.3 9.3 0 0 1 5-2c1.7-.1 3.5.4 5.3 1.5s3.5 2.7 5.1 4.9c1.6 2.1 2.6 4.1 3.1 6.1s.5 3.7.1 5.1a6.3 6.3 0 0 1-2.1 3.3c-.6.5-1.4.7-2.2.6-.8-.1-1.5-.5-2-1.2-.5-.6-.7-1.2-.6-1.8s.2-1.2.5-1.9c.6-1.4.8-2.7.7-3.9s-.7-2.6-1.8-4a6.4 6.4 0 0 0-3-2.3c-1.1-.4-2-.3-2.6.2-1 .8-1.5 1.7-1.4 2.9.1 1.1.6 2.8 1.6 4.9 1 2.4 1.8 4.4 2.2 6.1.4 1.7.5 3.2.1 4.7a6.3 6.3 0 0 1-2.4 3.7 7.3 7.3 0 0 1-4.1 1.5c-1.6.1-3.2-.3-4.8-1.2a18.7 18.7 0 0 1-7.3-8.6c-.6-1.4-.9-2.8-1-4s0-2.3.4-3.2c.3-.9.8-1.6 1.4-2.1a3 3 0 0 1 2.2-.6c.8.1 1.5.6 2.1 1.4.5.6.7 1.2.7 1.9s-.2 1.6-.4 2.6c-.2.9-.3 1.7-.2 2.6s.6 1.8 1.3 2.8a5.3 5.3 0 0 0 2.7 2.1c1 .4 1.8.3 2.5-.2.6-.5.9-1.1.9-1.9 0-.8-.2-1.7-.6-2.8l-1.8-4.3c-.9-2.1-1.5-4-1.8-5.6-.3-1.6-.2-3 .2-4.3.2-1.1.9-2.1 2-3zm-17.2-20.7l7.5 12.3a9.5 9.5 0 0 0 3.2-3.1 7.5 7.5 0 0 0 1.1-3.7c0-1.3-.4-2.4-1-3.6l-1.5-1.9-1.9-1.3c-.7-.4-1.5-.6-2.2-.9l-2.9-.8c-.5-.2-.9-.5-1.3-1.1-.4-.6-.5-1.3-.4-1.9s.5-1.1 1.1-1.5c.6-.3 1.4-.5 2.4-.5s2.2.2 3.4.7a14.3 14.3 0 0 1 7.3 6.6 15 15 0 0 1 2.3 11.5 15 15 0 0 1-7.3 9 18.5 18.5 0 0 1-5.7 2.3c-1.9.4-3.8.4-5.5.1s-3.4-1.1-5-2.3a16.4 16.4 0 0 1-4-4.6 13.8 13.8 0 0 1-2.3-7.2 12.4 12.4 0 0 1 5.8-10.8c1.6-1 2.9-1.1 3.9-.5 1 .5 2 1.6 3 3.2zm3.9 14.4l-6.9-11.4c-2 1.5-3.3 3-3.8 4.7-.5 1.6-.2 3.3.8 4.9a6 6 0 0 0 4 2.9c1.7.4 3.7 0 5.9-1.1zm-9.3-46c2 1.1 3.6 2.2 4.9 3.5 1.3 1.2 2.4 2.8 3.2 4.7.8 1.7 1.1 3.4 1 5s-.6 3-1.4 4.2c-.9 1.2-2 2.1-3.3 2.7-1.8.8-3.7.9-5.5.3a9.5 9.5 0 0 1-4.7-3.6l-2.1-2.9-2.9-3.9a61 61 0 0 0-2.8-3.5c-1.7.9-2.9 1.8-3.4 2.8-.5 1-.4 2.5.5 4.5a9.5 9.5 0 0 0 2.4 3.5c.9.6 1.9 1.1 3.1 1.3l2.5.5c.4.1.8.6 1.2 1.4.3.8.4 1.5.1 2.3-.2.8-.7 1.3-1.5 1.6-1.2.5-2.5.6-4 .3a9 9 0 0 1-4.5-2.7 20.8 20.8 0 0 1-4-6.1c-1.3-2.9-2-5.4-2-7.4a7 7 0 0 1 1.7-5 15 15 0 0 1 5.5-3.7l4-1.8 3.7-1.6c1.3-.6 2.5-1.3 3.7-2.4l2.4-1.8c.7-.3 1.5-.3 2.3.1.9.4 1.5 1 1.8 1.8.3.7.3 1.5-.1 2.5-.3 1-.9 2.1-1.8 3.4zm-9.5 4.8c.8.8 1.8 2.1 3 3.8a64 64 0 0 0 2.6 3.5c.5.6 1.2 1.2 2 1.6.8.4 1.7.4 2.7 0 1-.4 1.7-1.2 2.1-2.3.4-1.1.3-2.2-.3-3.5a9 9 0 0 0-2.5-3.3 6.1 6.1 0 0 0-3.3-1.5c-1.3-.2-3.1.3-5.4 1.3l-.9.4zm-3.5-22.4l5.9-1.7c1.4-.4 2.6-.4 3.5.1.9.5 1.5 1.2 1.8 2.2.3 1 .2 2-.4 2.8-.5.9-1.5 1.5-2.9 1.9l-19.6 5.7c-3.2.9-5.1.2-5.7-2.1-.3-1.2-.2-2.1.4-2.8a7 7 0 0 1 3-1.8c-1.7-.4-3-1-4-1.6-1-.7-1.7-1.7-2.1-3.2s-.5-3-.1-4.6c.3-1.6 1.1-2.6 2.3-2.9.9-.2 1.7-.2 2.4.3a3 3 0 0 1 1.4 1.7l.1 2c0 1.1.1 2 .3 2.8.3 1 .8 1.8 1.5 2.3a5 5 0 0 0 2.9.8c1.2.1 2.5-.1 4-.4l5.3-1.5zm-6.3-41.2c.9-.1 1.9 0 3 .4s2.2 1.1 3.3 2.1c1.1 1 2 2.3 2.8 3.9.8 1.6 1.3 3.5 1.6 5.6.6 4.5-.2 8.2-2.5 11.1a14.6 14.6 0 0 1-10 5.2c-3 .4-5.7.2-8.1-.6s-4.4-2.3-6-4.3-2.5-4.5-3-7.6c-.3-1.9-.2-3.6.1-5.3.3-1.6.9-3.1 1.6-4.3a10 10 0 0 1 2.4-2.9c.9-.7 1.8-1.1 2.6-1.2.9-.1 1.6.1 2.3.7.7.6 1.1 1.3 1.2 2.2.1.6 0 1.1-.3 1.6l-1.3 1.6c-1.2 1.1-2.1 2.1-2.6 3.2s-.7 2.3-.5 3.8c.3 2.1 1.4 3.8 3.2 4.8s4.2 1.4 7.1 1c1.4-.2 2.6-.5 3.7-1s2-1.1 2.7-1.9a6.8 6.8 0 0 0 1.7-5.7 6.6 6.6 0 0 0-1.5-3.6c-.8-.9-2-1.7-3.5-2.3-.9-.3-1.6-.7-2.1-1.2a3 3 0 0 1-1-1.8c-.1-.9.1-1.7.7-2.3 1-.7 1.6-1 2.4-1.2zm-27-13.2l10.9.5a19 19 0 0 1-2.4-2.8 10.1 10.1 0 0 1-1.6-6.5c.1-1.9.6-3.5 1.4-4.9a8 8 0 0 1 3.6-3.2c.9-.5 1.9-.8 3-.9 1.1-.1 2.3-.2 3.8-.1l14 .6c1.5.1 2.6.5 3.3 1.2.7.7 1.1 1.6 1 2.7-.1 2.4-1.7 3.6-4.6 3.4l-12.4-.6c-2.3-.1-4.2.2-5.5.8s-2 1.9-2.1 3.9c-.1 1.3.3 2.5 1 3.6a7 7 0 0 0 2.9 2.5c1.1.4 3 .7 5.8.9l9.7.4c1.4.1 2.5.4 3.3 1.1.7.7 1.1 1.6 1 2.8-.1 2.4-1.7 3.6-4.6 3.4l-31.8-1.5c-1.5-.1-2.6-.4-3.3-1.1s-1-1.6-1-2.7c.1-1.2.5-2.1 1.3-2.7.7-.6 1.9-.9 3.3-.8zm98.7-213.2l7 8.8 13.5-10.7-7-8.8c-1-1.3-1.5-2.4-1.4-3.5.1-1.1.6-2 1.5-2.7.9-.7 1.9-1 3-.9 1.1.2 2.1.9 3.1 2.2l19.2 24.3c1 1.3 1.5 2.5 1.4 3.6-.1 1.1-.6 2-1.5 2.7-.9.7-1.9 1-3 .8-1.1-.2-2.1-.9-3.1-2.2l-8.2-10.4-13.5 10.7 8.2 10.4c1 1.3 1.5 2.5 1.4 3.6-.1 1.1-.6 2-1.5 2.7-.9.7-1.9 1-3 .8-1.1-.2-2.1-.9-3.1-2.2l-19.2-24.3c-1-1.3-1.5-2.4-1.4-3.5.1-1.1.6-2 1.5-2.7.9-.7 2-1 3-.9 1.1.2 2.1.9 3.1 2.2zm54 7.1l-.2-1.8-18.7-15.8a10 10 0 0 1-2.1-2.1c-.3-.6-.4-1.1-.4-1.8s.2-1.2.6-1.8.8-1 1.3-1.3c.9-.5 1.8-.6 2.6-.2.8.3 1.7 1 2.6 1.9l14 13-2.7-17.6-.4-3.4c0-.9.1-1.5.3-1.9.2-.4.7-.8 1.4-1.2.5-.3 1-.4 1.6-.4s1.1.2 1.6.5.9.7 1.1 1.2l.4 1.4.4 2 3.3 26.6c.3 2.3.4 4.2.3 5.7a8 8 0 0 1-1.4 4c-.8 1.2-2.2 2.3-4.2 3.4-1.9 1-3.4 1.6-4.6 1.7-1.2.1-2-.4-2.6-1.5-.4-.7-.5-1.4-.2-2.1.2-.6.8-1.2 1.7-1.7l1.1-.4 1.1-.4c.7-.4 1.3-.8 1.6-1.3.3-.4.5-1 .5-1.8v-2.9zm16.8-37.2l.3.8c.8-2 1.7-3.7 2.9-4.9a12 12 0 0 1 16.8.4c1.8 1.8 3.1 4.1 4.1 7 .7 2.1 1.1 4.2 1.1 6.2a12.5 12.5 0 0 1-3.8 9.3c-1.2 1.1-2.6 2-4.3 2.5-2 .7-3.8.8-5.4.5-1.6-.3-3.3-1.1-5-2.2l3.5 10.4c1 3.1.4 5-1.8 5.7-1.3.4-2.3.3-3-.3a7.3 7.3 0 0 1-1.8-3.2l-10-30c-.4-1.3-.5-2.4-.1-3.3s1-1.4 2-1.8c1-.3 1.9-.3 2.7.2.8.6 1.4 1.5 1.8 2.7zm17 5.6c-.6-1.8-1.4-3.3-2.4-4.4-1-1.1-2.1-1.9-3.3-2.3s-2.4-.4-3.7 0c-1.9.6-3.3 1.9-4.1 3.9s-.7 4.4.3 7.3a10 10 0 0 0 4.1 5.8 6.6 6.6 0 0 0 5.6.7 6 6 0 0 0 2.9-2.1c.8-1 1.2-2.3 1.4-3.8.1-1.5-.2-3.2-.8-5.1zm40.9-7.3c.3 2.2.2 4.2-.2 6.1-.4 1.9-1.2 3.6-2.3 5.1a12.2 12.2 0 0 1-4.2 3.6 17.2 17.2 0 0 1-11.9 1.6c-1.9-.5-3.5-1.3-5-2.4a12.6 12.6 0 0 1-3.6-4.3 17.9 17.9 0 0 1-1.6-12c.4-1.9 1.2-3.6 2.3-5.1 1.1-1.5 2.5-2.7 4.2-3.6A17.2 17.2 0 0 1 676 74c1.9.5 3.6 1.3 5 2.4 1.5 1.1 2.6 2.6 3.6 4.3.9 1.9 1.5 3.9 1.8 6zm-7.3 1c-.4-3-1.4-5.2-2.9-6.7s-3.4-2.1-5.6-1.8c-1.4.2-2.6.7-3.6 1.6-1 .9-1.7 2.1-2.1 3.6s-.5 3.2-.2 5.1c.3 1.9.8 3.5 1.5 4.9a7.3 7.3 0 0 0 2.9 2.9c1.2.6 2.5.8 3.9.6a6.5 6.5 0 0 0 4.9-3.2c1.3-1.7 1.6-4 1.2-7zm14.3-15h.8v-4.4l.1-2.8c.1-.7.2-1.2.5-1.7a3.4 3.4 0 0 1 3-1.7c.9 0 1.8.4 2.5 1.1.5.5.8 1 .9 1.7l.2 2.9v5h2.7c1 0 1.8.3 2.4.8s.8 1.1.8 1.9c0 1-.4 1.7-1.2 2.1-.8.4-1.9.6-3.3.6h-1.4l-.1 13.5.1 2.6c.1.6.3 1.1.6 1.5.3.4.9.6 1.7.6l1.7-.2 1.7-.2c.6 0 1.1.2 1.6.7.5.5.7 1.1.7 1.8 0 1.2-.7 2.1-2 2.7-1.3.6-3.1.9-5.6.9-2.3 0-4-.4-5.2-1.2a5.7 5.7 0 0 1-2.3-3.2 21 21 0 0 1-.5-5.5l.1-14.1h-1c-1.1 0-1.9-.3-2.4-.8-.6-.5-.8-1.1-.8-1.9 0-.8.3-1.4.9-1.9.9-.6 1.7-.8 2.8-.8zm29.9-5.5L721.7 78a17 17 0 0 1 3.1-2.1c1-.5 2-.8 3.1-1s2.3-.1 3.5 0c1.8.3 3.4.9 4.7 1.9 1.3 1 2.3 2.3 2.9 3.9.4.9.6 2 .6 3.1l-.3 3.7-2 13.9c-.2 1.5-.7 2.5-1.5 3.1-.8.6-1.7.9-2.8.7-2.4-.4-3.4-2-2.9-4.9l1.8-12.2a12 12 0 0 0-.2-5.5c-.5-1.4-1.7-2.2-3.7-2.5a6 6 0 0 0-3.7.6 7.2 7.2 0 0 0-2.8 2.7c-.5 1-1 2.9-1.4 5.7l-1.4 9.6c-.2 1.4-.7 2.5-1.5 3.1-.8.7-1.7.9-2.9.7-2.4-.4-3.4-2-2.9-4.9l4.6-31.5c.2-1.5.7-2.5 1.4-3.2.7-.6 1.7-.9 2.8-.7 1.2.2 2 .7 2.5 1.5.6.9.8 2 .6 3.5zm42.2 33.5l-13.7-4.3c-.5 1.6-.6 3.1-.3 4.5s.8 2.6 1.6 3.5 1.9 1.6 3.1 2c.8.3 1.6.4 2.4.4a9 9 0 0 0 2.3-.3l2.2-.8 2.7-1.3c.5-.2 1-.2 1.7 0s1.2.6 1.6 1.1.4 1.2.1 1.9c-.2.6-.7 1.3-1.4 2-.8.7-1.8 1.3-3 1.7-1.2.5-2.7.7-4.4.8-1.7 0-3.5-.2-5.5-.9a14.8 14.8 0 0 1-9.3-7.1 14.8 14.8 0 0 1-.5-11.6c.6-2.1 1.5-3.9 2.7-5.5a13 13 0 0 1 4.1-3.7c1.6-.9 3.3-1.4 5.3-1.6 1.9-.1 4 .1 6.1.8 2.7.9 4.9 2.2 6.5 3.9a12 12 0 0 1 2.7 11.8c-.5 1.8-1.4 2.7-2.6 3-1 .5-2.5.3-4.4-.3zm-12.4-8.2l12.7 4c.6-2.4.5-4.4-.3-6-.8-1.5-2-2.6-3.9-3.2a6 6 0 0 0-4.9.5 9.6 9.6 0 0 0-3.6 4.7zm44.3 25.6c-.8 1.8-2 3.2-3.5 4.1a9.3 9.3 0 0 1-5.3 1.2c-2.1-.1-4.3-.8-6.8-1.9a17.9 17.9 0 0 1-5.7-3.9 9.3 9.3 0 0 1-2.5-4.5c-.3-1.5-.2-2.8.3-3.9a3 3 0 0 1 1.6-1.5 3 3 0 0 1 2.3.1c.7.3 1.2.7 1.4 1.3.2.5.4 1.2.4 1.9.1 1.5.6 2.8 1.2 3.8.7 1 1.8 1.9 3.5 2.7 1.3.6 2.6.8 3.7.6 1.1-.2 1.9-.7 2.2-1.5.5-1.2.5-2.2-.2-3.2-.6-.9-1.9-2.1-3.7-3.5a44 44 0 0 1-4.8-4.4 9.4 9.4 0 0 1-2.3-4.1c-.4-1.4-.2-2.9.4-4.4a7.4 7.4 0 0 1 2.9-3.2c1.3-.8 3-1.2 4.8-1.2s3.9.5 6.1 1.5c1.7.8 3.2 1.7 4.4 2.7 1.2 1 2.1 2 2.8 3s1 2 1.2 3c.1 1 .1 1.8-.3 2.5-.3.8-.9 1.3-1.6 1.5s-1.6.2-2.5-.3a3 3 0 0 1-1.5-1.4c-.3-.6-.6-1.4-.8-2.5-.2-.9-.6-1.7-1.1-2.4a6.5 6.5 0 0 0-2.5-1.9c-1.2-.6-2.3-.8-3.4-.6s-1.7.6-2.1 1.4c-.3.7-.3 1.4.1 2.1a9 9 0 0 0 1.9 2.2 93.6 93.6 0 0 1 7.8 7.1 10 10 0 0 1 1.8 3.8 5 5 0 0 1-.2 3.8zm19.5-7.4l-10.3 18.5a4.8 4.8 0 0 1-2.5 2.4c-1 .3-1.9.2-2.9-.3a3.3 3.3 0 0 1-1.7-2.3 5 5 0 0 1 .7-3.4l10.2-18.3c.7-1.3 1.5-2.1 2.5-2.4.9-.3 1.9-.2 2.8.3.9.5 1.5 1.3 1.8 2.3.2 1 0 2.1-.6 3.2zm.5-8.4c-.9-.5-1.5-1.2-1.8-2.1s-.2-1.9.3-2.9c.5-.9 1.2-1.5 2.2-1.7 1-.2 1.9-.1 2.8.4.8.5 1.4 1.1 1.8 2 .3.9.2 1.8-.3 2.9-.5 1-1.3 1.6-2.2 1.8s-1.9.1-2.8-.4zm18.1 39c-1.1 1.7-2.5 2.9-4.1 3.6s-3.4.8-5.4.4c-2-.4-4.2-1.4-6.5-2.9-2.2-1.4-3.9-3-5-4.7a9.2 9.2 0 0 1-1.8-4.8c-.1-1.5.2-2.8.9-3.8a3 3 0 0 1 1.8-1.3c.8-.2 1.6 0 2.3.5.6.4 1 .9 1.2 1.4.1.5.2 1.2.1 2-.1 1.5.1 2.8.7 3.9s1.5 2.2 3.1 3.1c1.2.8 2.4 1.2 3.6 1.1 1.1 0 1.9-.4 2.4-1.1.7-1.1.8-2.1.3-3.2-.5-1-1.5-2.4-3.1-4a45.8 45.8 0 0 1-4.1-5c-1-1.4-1.5-2.9-1.7-4.4s.2-2.9 1.1-4.3a7.3 7.3 0 0 1 3.4-2.8 9 9 0 0 1 5-.5 19 19 0 0 1 9.8 5.7c1.1 1.2 1.8 2.3 2.3 3.4.5 1.1.7 2.1.7 3.1s-.2 1.8-.6 2.4c-.5.7-1.1 1.1-1.8 1.3a4 4 0 0 1-2.5-.6c-.6-.4-1-.9-1.3-1.6a12 12 0 0 1-.5-2.6c-.1-.9-.3-1.7-.7-2.5a5.8 5.8 0 0 0-2.2-2.2c-1.1-.7-2.2-1.1-3.2-1.1s-1.8.3-2.3 1c-.4.6-.5 1.4-.2 2.1a8 8 0 0 0 1.5 2.4l3.1 3.5c1.6 1.7 2.8 3.3 3.6 4.7s1.2 2.8 1.3 4.1a9 9 0 0 1-1.2 3.7zm84 82l-2.6-6.8-10.4 4c-1.5.6-2.8.7-3.8.2-1-.4-1.8-1.1-2.2-2.2-.4-1.1-.4-2.2.1-3.1.5-1 1.5-1.7 3-2.3l28.3-10.9c1.6-.6 3-.7 3.9-.2 1 .5 1.8 1.5 2.4 3.2l3.7 9.6c1.1 2.8 1.7 5.1 1.9 6.8.2 1.7 0 3.2-.6 4.7-.5 1.5-1.4 2.8-2.6 3.9s-2.7 2-4.4 2.7c-3.7 1.4-7 1.4-9.8-.2a17.2 17.2 0 0 1-6.9-9.4zm16.1-8.2l-1.9-5-11.2 4.3 1.9 5c.7 1.8 1.4 3.2 2.2 4.2.8 1 1.8 1.7 2.8 2 1.1.3 2.3.2 3.6-.3a5.7 5.7 0 0 0 3.4-3c.8-1.5.5-3.9-.8-7.2zm-12.6 37l-5.9 1.5c-1.4.4-2.6.3-3.5-.2a3.3 3.3 0 0 1-1.7-2.3c-.3-1-.1-2 .4-2.8a5 5 0 0 1 3-1.8l19.8-5.1c3.2-.8 5.1-.1 5.7 2.2.3 1.2.1 2.1-.5 2.8s-1.6 1.3-3.1 1.7c1.7.5 3 1.1 4 1.8a5 5 0 0 1 2 3.3 9 9 0 0 1 0 4.6c-.4 1.6-1.2 2.6-2.4 2.9-.9.2-1.7.1-2.4-.3-.7-.5-1.2-1-1.3-1.7v-2c.1-1.1 0-2-.2-2.8-.3-1-.8-1.8-1.5-2.3-.7-.5-1.7-.8-2.8-.9-1.2-.1-2.5 0-4 .2l-5.6 1.2zm11.9 40.9c-2.2.3-4.2.3-6.1-.1a13 13 0 0 1-8.8-6.3c-1-1.7-1.6-3.6-1.9-5.8-.3-2.2-.3-4.2.2-6.1.4-1.9 1.2-3.5 2.4-5 1.1-1.5 2.5-2.7 4.2-3.6a18.3 18.3 0 0 1 12-1.8 13 13 0 0 1 8.8 6.3c1 1.7 1.6 3.6 1.9 5.8.3 2.2.3 4.2-.2 6.1-.4 1.9-1.2 3.6-2.3 5-1.1 1.5-2.5 2.7-4.2 3.6s-3.8 1.5-6 1.9zm-1.1-7.3c3-.4 5.2-1.4 6.6-3s2-3.4 1.7-5.6a6.7 6.7 0 0 0-1.7-3.6 7 7 0 0 0-3.6-2c-1.5-.4-3.2-.4-5.2-.1a13 13 0 0 0-4.8 1.6 7.6 7.6 0 0 0-2.9 3c-.6 1.2-.8 2.5-.6 4a6.4 6.4 0 0 0 3.3 4.9c1.9.9 4.3 1.2 7.2.8zm15.6 13.3v.8l4.4-.2h2.8c.7 0 1.3.2 1.8.4.5.3.9.7 1.3 1.2.3.5.5 1.1.6 1.8 0 .9-.3 1.8-.9 2.6-.4.5-1 .9-1.7 1-.7.2-1.6.3-2.8.3l-5 .2.1 2.7c0 1-.2 1.8-.6 2.4-.5.6-1.1.9-1.9.9-1 0-1.7-.3-2.1-1.1-.4-.8-.7-1.9-.7-3.3l-.1-1.4-13.6.7-2.6.2c-.6.1-1.1.3-1.5.7-.4.4-.5.9-.5 1.7l.3 1.7.3 1.7c0 .6-.2 1.1-.6 1.6-.5.5-1 .8-1.7.8-1.2.1-2.1-.5-2.8-1.8-.7-1.3-1.1-3.1-1.2-5.5-.1-2.3.2-4 .9-5.3.7-1.2 1.7-2 3.1-2.5 1.3-.4 3.1-.7 5.4-.8l14.1-.6v-1c0-1.1.2-1.9.6-2.4.5-.6 1.1-.9 1.9-.9.8 0 1.4.2 1.9.8.4.7.7 1.5.8 2.6zm-15.2 47.6a15.2 15.2 0 0 1-10.6-4.6c-1.2-1.4-2.2-3-2.8-4.8a17 17 0 0 1 .7-12 13.7 13.7 0 0 1 8.3-7.1c1.9-.6 3.9-.8 6.1-.6 2.2.1 4.2.6 6 1.4 1.8.8 3.3 1.9 4.5 3.2 1.2 1.4 2.1 3 2.7 4.8a16.8 16.8 0 0 1-.8 12c-.8 1.8-1.9 3.2-3.3 4.4-1.4 1.2-3 2.1-4.9 2.6-1.6.7-3.7.9-5.9.7zm.5-7.3c3 .2 5.3-.3 7.1-1.5s2.7-2.9 2.8-5.1c.1-1.4-.2-2.7-.9-3.9-.7-1.1-1.7-2-3.1-2.7-1.4-.7-3.1-1.1-5-1.2-1.9-.1-3.6.1-5.1.6a6.7 6.7 0 0 0-4.8 6c-.1 2.2.6 4 2.2 5.5 1.6 1.3 3.8 2.1 6.8 2.3zm12.3 16.4l-.1.8 4.3.8 2.7.6c.6.2 1.2.4 1.6.8.4.4.8.8 1 1.4.2.6.3 1.2.2 1.9-.2.9-.7 1.7-1.5 2.3a3 3 0 0 1-1.8.6l-2.9-.3-4.9-.9-.5 2.6c-.2 1-.6 1.8-1.1 2.2-.6.5-1.2.6-2 .5-1-.2-1.6-.7-1.8-1.5-.3-.8-.3-2 0-3.4l.2-1.3-13.3-2.3-2.6-.3c-.6 0-1.2.1-1.6.4s-.7.8-.9 1.6l-.1 1.8-.1 1.7c-.1.6-.4 1.1-1 1.5s-1.2.5-1.9.4c-1.2-.2-1.9-1-2.3-2.4s-.4-3.3 0-5.6 1.1-3.9 2-4.9 2.1-1.6 3.5-1.7c1.4-.1 3.2 0 5.5.4l13.9 2.4.2-1a4 4 0 0 1 1.2-2.3c.6-.5 1.3-.6 2-.5.8.1 1.3.5 1.7 1.2.5.5.6 1.4.4 2.5z"/>
    <path class="st4" d="M912.3 374.6l1.4 1.1 24.3-2.4c1.4-.2 2.4-.2 3 0 .6.2 1.1.5 1.5.9.4.5.7 1 .9 1.6.2.6.1 1.2 0 1.8-.3 1-.8 1.7-1.6 2-.8.3-1.8.5-3.2.6l-19.1 1 14.5 10.3c1.2.8 2.1 1.5 2.7 2.1.6.6 1 1.1 1.2 1.6.1.5.1 1.1-.1 1.8a3 3 0 0 1-.9 1.4c-.4.4-.9.7-1.5.8-.6.1-1.1.1-1.6 0a13 13 0 0 0-1.3-.7l-1.7-1.1-21.4-16.1a29.5 29.5 0 0 1-4.3-3.7 8 8 0 0 1-1.9-3.8c-.3-1.4-.1-3.2.5-5.3.6-2.1 1.3-3.6 2-4.5.7-.9 1.7-1.2 2.9-.8.8.2 1.4.7 1.7 1.3.3.6.3 1.4 0 2.4l-.5 1.1-.5 1.1c-.2.8-.3 1.5-.2 2 .1.5.4 1.1.9 1.6l2.3 1.9zm15.5 37.5l-.8-.4a14 14 0 0 1 1.7 5.4 11.5 11.5 0 0 1-5 10.1c-1.8 1.3-4 2-6.5 2.1-2.5.1-5.1-.4-7.9-1.7a17.9 17.9 0 0 1-8.6-7.7 12 12 0 0 1-.1-9.7 9.2 9.2 0 0 1 3.3-4.3c1.3-1 3-1.7 5-2.2l-10.1-4.4c-3-1.3-4-3-3-5.2.6-1.3 1.3-1.9 2.2-2 .9-.1 2.1.2 3.6.8l29 12.7c1.3.6 2.1 1.3 2.5 2.1.4.8.4 1.7-.1 2.7-.4 1-1.1 1.6-2 1.9-.9.5-2 .4-3.2-.2zm-15.5 8.9a12 12 0 0 0 4.9 1.2c1.5 0 2.8-.3 3.9-1s1.9-1.6 2.4-2.7c.8-1.9.8-3.7-.1-5.6-.9-1.9-2.8-3.5-5.6-4.7-2.7-1.2-5-1.4-7.1-.8-2 .6-3.5 1.9-4.3 3.7a6 6 0 0 0-.4 3.5c.2 1.2.9 2.4 1.9 3.6 1.1 1.1 2.6 2 4.4 2.8zM894 450l7.4-12.3c-1.4-.8-2.9-1.3-4.3-1.4s-2.7.2-3.8.7a8.4 8.4 0 0 0-4 7.1l.2 2.3.6 3c.1.5-.1 1-.4 1.6-.4.6-.9 1.1-1.5 1.2-.6.2-1.2.1-1.9-.3-.6-.3-1.1-1-1.6-1.9a11.3 11.3 0 0 1-.7-7.7c.4-1.6 1.1-3.3 2.1-5.1 2.4-4 5.5-6.5 9.1-7.3 3.7-.9 7.4-.1 11.4 2.3 1.9 1.1 3.4 2.4 4.7 3.9a12.6 12.6 0 0 1 2.9 10.4 16.8 16.8 0 0 1-7.6 11.1 12.3 12.3 0 0 1-12.2-.2c-1.6-1-2.3-2-2.3-3.2.3-1.1.9-2.5 1.9-4.2zm10.9-10.1l-6.9 11.4a9.7 9.7 0 0 0 5.9 1.2c1.7-.4 3-1.4 4-3a6 6 0 0 0 .7-4.8 9.5 9.5 0 0 0-3.7-4.8z"/>
    <path d="M328.9 713.4c0 7.4-1 13.8-2.9 19a31.7 31.7 0 0 1-21.5 20.2 67.8 67.8 0 0 1-18.6 2.4h-19.3c-1.4 0-2.5-.4-3.5-1.2s-1.4-2.1-1.4-4v-70.5c0-1.8.5-3.2 1.4-4s2.1-1.2 3.5-1.2h20.8c7.2 0 13.3.8 18.3 2.5s9.3 4.2 12.7 7.5 6.1 7.4 7.8 12.3a49.3 49.3 0 0 1 2.7 17zm-17 .6c0-3.8-.4-7.4-1.3-10.7a20.9 20.9 0 0 0-11.9-14.3c-3.1-1.4-7.2-2-12.2-2H278v55h8.6c4.5 0 8.3-.6 11.4-1.8 3.1-1.2 5.7-2.9 7.7-5.3 2.1-2.4 3.6-5.3 4.6-8.8 1-3.4 1.6-7.5 1.6-12.1zm81 9.4c0 1.9-.4 3.3-1.3 4.3-.9.9-2 1.4-3.5 1.4h-33.9c0 2.4.3 4.5.8 6.5s1.5 3.6 2.7 4.9c1.2 1.4 2.8 2.4 4.8 3.1 1.9.7 4.3 1.1 7 1.1a39.1 39.1 0 0 0 12.7-1.9l3.8-1.3a7 7 0 0 1 2.4-.6l.9.2c.3.1.5.4.6.8.2.4.3.9.3 1.6l.1 2.6-.1 2.3-.2 1.7-.4 1.2-.7.9c-.3.3-1 .7-2.2 1.2a41.7 41.7 0 0 1-11 2.8 48 48 0 0 1-20.8-1.4 23.2 23.2 0 0 1-9.3-5.7 23.5 23.5 0 0 1-5.6-9.6 46.2 46.2 0 0 1-1.8-13.6c0-5 .6-9.4 1.9-13.4 1.3-4 3.2-7.4 5.6-10.1a23 23 0 0 1 9-6.3 30 30 0 0 1 11.9-2.2c4.7 0 8.7.7 12 2.1s6 3.3 8.2 5.7 3.7 5.3 4.7 8.7c1 3.3 1.5 7 1.5 10.9v2.1zm-15.2-4.5c.1-4.4-.8-7.9-2.7-10.4-1.9-2.5-4.8-3.8-8.8-3.8-2 0-3.7.4-5.2 1.1-1.5.8-2.7 1.8-3.7 3a16 16 0 0 0-2.3 4.5c-.5 1.7-.8 3.6-.9 5.5h23.6zm78.8-21.8v.8l-.1 1-.3 1.2-.4 1.6L439 752c-.2.7-.5 1.3-.8 1.7-.4.4-.9.8-1.8 1s-1.9.4-3.3.5l-5.5.1a74.2 74.2 0 0 1-8.7-.7c-.8-.3-1.4-.6-1.7-1-.4-.4-.6-1-.8-1.7l-16.8-50.4-.6-2.3-.3-1.4v-.8c0-.4.1-.8.3-1.1.2-.3.6-.6 1.2-.8.6-.2 1.4-.4 2.4-.4l3.8-.1 4.1.2 2.5.4c.6.2 1 .5 1.3.8.3.4.5.8.6 1.3l12.7 40.9.4 1.6.4-1.6 12.5-40.9c.1-.5.3-.9.6-1.3s.7-.6 1.3-.8a38 38 0 0 1 12.2-.1c.5.2.9.5 1.1.8.3.4.4.8.4 1.2zm571.5 16.6c0 6.7-.8 12.7-2.5 18a36.7 36.7 0 0 1-7.4 13.5 31.8 31.8 0 0 1-12.2 8.4 46.2 46.2 0 0 1-16.8 2.9c-6.3 0-11.8-.8-16.5-2.5s-8.6-4.2-11.7-7.5-5.5-7.7-7-12.9a63.6 63.6 0 0 1-2.3-18.5c0-6.5.8-12.4 2.5-17.7 1.7-5.2 4.1-9.7 7.4-13.3 3.3-3.7 7.4-6.5 12.2-8.4 4.9-2 10.5-2.9 16.9-2.9 6.1 0 11.5.8 16.2 2.4a28.5 28.5 0 0 1 18.9 20.3 65 65 0 0 1 2.3 18.2zm-17.3.8a59 59 0 0 0-1-11.6c-.7-3.5-1.8-6.5-3.4-8.9a16.3 16.3 0 0 0-6.4-5.8c-2.7-1.4-6-2-10-2s-7.4.8-10.1 2.3a19.3 19.3 0 0 0-6.6 6.1 24.4 24.4 0 0 0-3.5 8.9 61.5 61.5 0 0 0 0 22.7 26 26 0 0 0 3.4 9c1.6 2.5 3.7 4.4 6.4 5.7 2.7 1.3 6 2 10.1 2 4 0 7.4-.8 10.1-2.3 2.7-1.5 4.9-3.5 6.6-6.1 1.7-2.6 2.8-5.6 3.5-9s.9-7.1.9-11zm86.3 9.7c0 5-.5 9.4-1.6 13.4a30 30 0 0 1-4.7 10.2c-2 2.8-4.6 4.9-7.6 6.4a23 23 0 0 1-14.9 1.8 20 20 0 0 1-7.7-3.8c-1.3-1-2.5-2.1-3.9-3.4V775c0 .4-.1.8-.4 1.1-.3.3-.7.6-1.3.8a38 38 0 0 1-10 .5 11 11 0 0 1-2.4-.5c-.6-.2-1-.5-1.3-.8-.3-.3-.4-.7-.4-1.1v-77.9c0-.4.1-.8.3-1.1.2-.3.6-.6 1.1-.8a8 8 0 0 1 2.1-.5 27.3 27.3 0 0 1 6.4 0c.9.1 1.5.3 2.1.5.5.2.9.5 1.1.8.2.3.3.7.3 1.1v6.6a48 48 0 0 1 9.6-7.6 19 19 0 0 1 5-1.9 24.4 24.4 0 0 1 15.9 1.8c2.9 1.6 5.2 3.8 7 6.6a31 31 0 0 1 4 9.8c.9 3.7 1.3 7.6 1.3 11.8zm-16.4 1.1c0-2.4-.2-4.7-.5-6.8-.4-2.2-1-4.1-1.8-5.8-.9-1.7-2-3.1-3.4-4.1a8.6 8.6 0 0 0-5.2-1.5 11.2 11.2 0 0 0-6.2 2c-1.1.7-2.2 1.6-3.3 2.8s-2.3 2.5-3.6 4.2v18.4c2.2 2.8 4.3 4.9 6.3 6.5 2 1.5 4.1 2.3 6.3 2.3 2 0 3.8-.5 5.2-1.6 1.4-1 2.6-2.4 3.5-4.1.9-1.7 1.6-3.6 2-5.7s.7-4.4.7-6.6zm67.6 11.9c0 3.2-.6 6-1.8 8.4a18.4 18.4 0 0 1-5 6.1 25 25 0 0 1-7.7 3.7 37.1 37.1 0 0 1-24.5-2c-1-.5-1.7-1-2.2-1.4-.5-.4-.8-1.1-1.1-2.1s-.4-2.3-.4-4.2l.1-2.9a8 8 0 0 1 .4-1.8l.6-.9.9-.2c.5 0 1.1.3 2 .8a48.4 48.4 0 0 0 8 3.5 22.3 22.3 0 0 0 9.8.4c1.1-.3 2.1-.7 2.9-1.3.8-.5 1.4-1.2 1.8-2.1.4-.8.6-1.8.6-2.9 0-1.3-.4-2.3-1.2-3.2a9.3 9.3 0 0 0-3.1-2.3c-1.3-.7-2.7-1.3-4.3-1.9l-4.9-1.9c-1.7-.7-3.3-1.5-4.9-2.4a17.4 17.4 0 0 1-7.4-8.2c-.8-1.9-1.2-4.1-1.2-6.8s.5-5.1 1.6-7.3c1-2.2 2.5-4.1 4.5-5.7 2-1.6 4.3-2.8 7.2-3.7a31.6 31.6 0 0 1 14.6-.9l4.5.9 3.4 1.2 2 1.1c.4.3.7.6.8.9l.4 1.1.2 1.6.1 2.4-.1 2.8-.3 1.7c-.1.4-.3.7-.6.8l-.9.2c-.4 0-1-.2-1.8-.7a46.1 46.1 0 0 0-7.1-2.8 20.6 20.6 0 0 0-9-.3 7 7 0 0 0-2.6 1.3c-.7.5-1.2 1.2-1.5 1.9a6 6 0 0 0-.5 2.3c0 1.3.4 2.4 1.2 3.3.8.9 1.8 1.6 3.1 2.3 1.3.7 2.8 1.3 4.4 1.9l5 1.9c1.7.7 3.4 1.5 5 2.4 1.6.9 3.1 2 4.4 3.4 1.3 1.3 2.3 2.9 3.1 4.8 1.1 2 1.5 4.2 1.5 6.8z" fill="#ddd"/>
    <path class="st0" d="M600.6 462.1H459l37.4 46.7 43.4 54.3h132.6-272.6c-109.5 0-153.8 23.7-180.5 27.1l17-65-75.3-16.7c21.9-10.6 82.2-46.4 238.8-46.4h200.8z"/>
    <path class="st4" d="M278.3 524.4l-2.8.3 1.2 12.6c.2 1.7-.1 2.9-.7 3.8-.7.9-1.6 1.3-2.7 1.4a4 4 0 0 1-3.1-.9c-.8-.8-1.2-1.9-1.4-3.5l-2.9-30.2c-.2-1.7.1-3 .8-3.8.7-.8 1.9-1.3 3.6-1.5l12.9-1.2c1.8-.2 3.3-.2 4.6-.2 1.3 0 2.4.2 3.5.6a10 10 0 0 1 7.1 9.1c.3 2.9-.3 5.3-1.8 7.2a14.2 14.2 0 0 1-7.1 4.4c1.5.6 2.9 1.6 4.4 2.9a39.8 39.8 0 0 1 6.7 8.5 7.7 7.7 0 0 1 1.1 2.7l-.3 1.6c-.3.5-.7 1-1.2 1.3-.5.3-1.2.6-1.9.6-.9.1-1.7-.1-2.3-.4-.6-.4-1.2-.8-1.7-1.4l-2-2.7-3.7-5a26.9 26.9 0 0 0-3.5-4.1c-1-.9-2-1.5-2.9-1.8-1.3-.4-2.5-.4-3.9-.3zm3-16.9l-7.3.7 1 10.8 7.1-.7c1.9-.2 3.5-.5 4.8-1a5.5 5.5 0 0 0 2.8-2c.6-.9.8-2 .7-3.4-.1-1.1-.5-2-1.1-2.8a4.7 4.7 0 0 0-2.5-1.6c-1-.2-2.8-.3-5.5 0zm44.7 16.9l-14.3 1.3c.2 1.7.6 3.1 1.4 4.3a6.6 6.6 0 0 0 2.9 2.6c1.1.5 2.4.8 3.7.6l2.4-.5c.7-.3 1.4-.7 2-1.2l1.7-1.6 2-2.2c.3-.4.9-.6 1.6-.6.7-.1 1.4.1 1.9.5s.8.9.9 1.7c.1.7-.1 1.5-.6 2.4-.4.9-1.1 1.8-2.1 2.8-1 .9-2.2 1.7-3.8 2.4-1.5.7-3.3 1.1-5.4 1.3-4.7.4-8.5-.6-11.3-3-2.8-2.4-4.5-6-4.9-10.5-.2-2.2 0-4.2.4-6.1.5-1.9 1.3-3.6 2.4-5 1.1-1.4 2.5-2.6 4.3-3.4 1.7-.9 3.7-1.4 5.9-1.6a13 13 0 0 1 12.5 5.5c1.2 1.8 1.9 3.7 2 5.7.2 1.8-.3 3.1-1.3 3.7-1 .4-2.4.8-4.3.9zm-14.7-2.8l13.2-1.2c-.4-2.5-1.2-4.3-2.5-5.4a6.1 6.1 0 0 0-4.8-1.4c-1.8.2-3.3.9-4.3 2.3s-1.6 3.2-1.6 5.7zm27.6 10.4l-2.7-31.7c-.1-1.5.1-2.6.7-3.4a3 3 0 0 1 2.5-1.3c1.1-.1 2 .2 2.8.9a5 5 0 0 1 1.3 3.2l2.7 31.7c.1 1.5-.1 2.6-.7 3.4-.6.8-1.5 1.2-2.6 1.3-1.1.1-2-.2-2.7-.9-.8-.7-1.2-1.8-1.3-3.2zm34.5-11.6l-14.3 1.2c.2 1.7.6 3.1 1.4 4.3a6.9 6.9 0 0 0 6.5 3.3 8.5 8.5 0 0 0 4.4-1.6l1.8-1.6 2.1-2.2c.3-.4.9-.6 1.6-.6.7-.1 1.4.1 1.9.5s.8.9.8 1.7c.1.7-.1 1.5-.6 2.4a10 10 0 0 1-2.1 2.7 16.5 16.5 0 0 1-9.2 3.6c-4.7.4-8.5-.6-11.3-3.1-2.8-2.5-4.4-6-4.8-10.6-.2-2.2 0-4.2.5-6.1a12 12 0 0 1 6.7-8.4c1.7-.9 3.7-1.4 5.9-1.6 2.9-.2 5.4.2 7.5 1.2a12.4 12.4 0 0 1 7 10c.2 1.8-.3 3.1-1.3 3.7a9.3 9.3 0 0 1-4.5 1.2zm-14.6-2.9l13.2-1.1c-.4-2.5-1.2-4.3-2.5-5.4a6.6 6.6 0 0 0-4.8-1.5c-1.8.2-3.3.9-4.3 2.3a9.2 9.2 0 0 0-1.6 5.7zm45.9 9.7a22.9 22.9 0 0 1-4.9 3.4 13.5 13.5 0 0 1-10.5.6 8.9 8.9 0 0 1-3.5-2.8 8.4 8.4 0 0 1-1.4-4.1c-.1-2 .4-3.7 1.6-5.2 1.2-1.5 2.9-2.5 5-3.2a70 70 0 0 0 3.4-.9l4.7-1.3 4.2-1.4a8.3 8.3 0 0 0-1.4-4.2c-.7-.9-2.2-1.2-4.4-1.1-1.9.1-3.2.5-4.1 1a7 7 0 0 0-2.3 2.5l-1.3 2.1c-.3.3-.8.5-1.8.6-.8.1-1.5-.2-2.2-.7-.6-.5-1-1.1-1-2a6 6 0 0 1 1.1-3.8 9.3 9.3 0 0 1 4.1-3.3c1.9-.9 4.3-1.4 7.1-1.6 3.2-.2 5.8 0 7.7.7 1.9.6 3.3 1.8 4.1 3.4.9 1.6 1.4 3.8 1.5 6.5l.3 4.4.2 4a14 14 0 0 0 1 4.3l.9 2.8c0 .8-.3 1.5-.9 2.1-.7.7-1.4 1-2.3 1.1-.8 0-1.5-.3-2.3-.9a20 20 0 0 1-2.6-3zm-1.2-10.6a110.3 110.3 0 0 1-8.8 2.7c-.8.3-1.5.7-2.2 1.3-.7.6-1 1.5-.9 2.6.1 1.1.5 2 1.4 2.7.9.7 2 1 3.4 1 1.4-.1 2.8-.5 3.9-1.2 1.2-.7 2-1.6 2.5-2.6.6-1.1.8-3 .6-5.5l.1-1zm38.5 3.7c.1 2-.4 3.8-1.3 5.2a8.8 8.8 0 0 1-4.3 3.4c-1.9.8-4.2 1.2-7 1.3-2.6.1-4.9-.3-6.8-1a9.8 9.8 0 0 1-4.2-2.9 6 6 0 0 1-1.4-3.6c0-.8.2-1.5.8-2.1a3 3 0 0 1 2.2-.9 3 3 0 0 1 1.8.5c.4.4.8.9 1.2 1.6a8.7 8.7 0 0 0 2.8 2.9c1.1.6 2.5.9 4.3.9 1.5 0 2.7-.4 3.6-1.1.9-.7 1.4-1.4 1.3-2.3 0-1.3-.5-2.2-1.5-2.8-1-.6-2.6-1.1-4.9-1.6-2.5-.6-4.6-1.2-6.2-1.8s-2.9-1.5-3.9-2.6a6 6 0 0 1-1.5-4.1c0-1.5.4-2.9 1.2-4.2s2.1-2.4 3.8-3.2 3.7-1.3 6.2-1.3a16.4 16.4 0 0 1 8.9 2c1 .6 1.8 1.3 2.4 2.1.5.8.8 1.6.9 2.3 0 .8-.2 1.5-.8 2.1-.5.6-1.3.8-2.4.9-.8 0-1.4-.2-1.9-.6-.5-.4-1.2-1-1.9-1.9a6.5 6.5 0 0 0-2-1.7c-.8-.4-1.8-.6-3.1-.6s-2.4.3-3.3.9c-.9.6-1.3 1.3-1.3 2.1s.4 1.4 1 1.9c.7.5 1.5.9 2.6 1.2l4.5 1.1c2.3.5 4.2 1.1 5.6 1.8 1.5.7 2.6 1.6 3.3 2.6a5 5 0 0 1 1.3 3.5zm26.8-3.1l-14.3-.3c0 1.7.3 3.1.9 4.4a6.6 6.6 0 0 0 6.1 3.9 8.8 8.8 0 0 0 4.5-1.2l1.9-1.4 2.3-2a2 2 0 0 1 1.6-.4c.8 0 1.4.2 1.8.7.5.4.7 1 .7 1.8 0 .7-.3 1.4-.8 2.3a8 8 0 0 1-2.4 2.5c-1.1.8-2.4 1.4-4 1.9s-3.4.7-5.5.7c-4.7-.1-8.3-1.5-10.9-4.3a14.7 14.7 0 0 1-3.7-11c0-2.2.4-4.2 1.1-6 .7-1.8 1.7-3.4 2.9-4.7 1.3-1.3 2.8-2.3 4.6-2.9s3.8-1 6-.9c2.9.1 5.3.7 7.3 2a12.2 12.2 0 0 1 5.9 10.7c0 1.8-.6 3-1.7 3.5-.9.5-2.4.8-4.3.7zm-14.3-4.5l13.3.3a9.2 9.2 0 0 0-1.9-5.7 6.2 6.2 0 0 0-4.6-2c-1.8 0-3.3.6-4.5 1.8a10 10 0 0 0-2.3 5.6z"/>
  </g>
  <g id="Layer_2">
    <path d="M698.8 254.6a3 3 0 0 0-.5-1.6c-.4-.5-1-.9-1.9-1.2a43.9 43.9 0 0 0-18.6 0c-.9.3-1.5.7-1.9 1.2-.4.5-.5 1-.5 1.6v70.3c0 4.1-.6 7.7-1.7 11a23 23 0 0 1-4.7 8.1c-2 2.2-4.5 3.9-7.5 5s-6.3 1.7-10 1.7-7-.6-10-1.7a21 21 0 0 1-7.7-5c-2.1-2.2-3.8-5-4.9-8.4a39.2 39.2 0 0 1-1.7-12.1v-69c0-.6-.2-1.1-.6-1.6-.4-.5-1-.9-1.9-1.2a44.5 44.5 0 0 0-18.8 0c-.9.3-1.6.7-1.9 1.2-.4.5-.5 1-.5 1.6v71c0 7.5 1.1 14 3.2 19.5a34.8 34.8 0 0 0 9.3 13.9c4 3.7 9 6.5 14.8 8.3a66.6 66.6 0 0 0 19.8 2.8c7.8 0 14.7-1 20.8-3.1a37.4 37.4 0 0 0 24.5-23.3 55.2 55.2 0 0 0 3.2-19.2v-69.8zm78.3 53.3l26-47.7a34 34 0 0 0 2-5.1c.3-1.3.2-2.2-.5-2.9-.7-.7-1.9-1.1-3.6-1.2a120.9 120.9 0 0 0-13.5 0c-1.5.1-2.7.3-3.6.6-.9.3-1.5.6-1.9 1.1-.4.5-.8 1.1-1.1 1.8l-20 38.6-20.5-38.6-1.1-1.8c-.4-.5-1.1-.9-2-1.1-1-.3-2.3-.5-3.9-.6a111.1 111.1 0 0 0-14.6 0c-1.9.2-3.1.5-3.8 1.2-.7.6-.8 1.6-.5 2.9.4 1.3 1.1 3 2.2 5.2l26 47.9-28 51a33.2 33.2 0 0 0-2.3 5.1c-.4 1.3-.2 2.2.4 2.9.6.7 1.8 1.1 3.5 1.3a66.5 66.5 0 0 0 13.8.1c1.7-.1 2.9-.3 3.9-.6.9-.3 1.6-.6 2-1.1l1.2-1.8 21.9-42.2 21.9 42.2c.3.7.7 1.3 1.1 1.8.4.5 1.1.9 2 1.1.9.3 2.2.5 3.8.6a108.4 108.4 0 0 0 14.6-.1c1.9-.2 3.2-.6 3.9-1.3.7-.7.9-1.6.6-2.9a25 25 0 0 0-2.1-5.1l-27.8-51.3z" fill="#0b8f99"/>
    <path d="M689.2 909.5c-5-4.8-11.1-8.4-18.3-10.8a85 85 0 0 0-26.5-3.7h-30c-2 0-3.7.6-5 1.8-1.4 1.2-2 3.1-2 5.7v101.8c0 2.6.7 4.6 2 5.7 1.4 1.2 3 1.8 5 1.8h27.9a92 92 0 0 0 26.8-3.4 48.8 48.8 0 0 0 19.1-10.6 47 47 0 0 0 12.1-18.6 80 80 0 0 0 4.2-27.5c0-9.3-1.3-17.4-3.9-24.5-2.7-7-6.4-12.9-11.4-17.7zm-11.6 60.7a32.8 32.8 0 0 1-6.7 12.7c-3 3.4-6.7 5.9-11.2 7.6a46.4 46.4 0 0 1-16.4 2.5H631v-79.4h12a46 46 0 0 1 17.7 2.9c4.5 2 8.2 4.7 11 8.2 2.9 3.5 4.9 7.6 6.2 12.4 1.3 4.8 1.9 9.9 1.9 15.4a63 63 0 0 1-2.2 17.7zm125.4 37.7a25 25 0 0 0-2.1-5.1l-27.7-51.3 26-47.7a34 34 0 0 0 2-5.1c.3-1.3.2-2.2-.5-2.9-.7-.7-1.9-1.1-3.6-1.2a120.9 120.9 0 0 0-13.5 0c-1.5.1-2.7.3-3.6.6-.9.3-1.5.6-1.9 1.1-.4.5-.8 1.1-1.1 1.8l-20 38.6-20.5-38.6-1.1-1.8c-.4-.5-1.1-.9-2-1.1-1-.3-2.3-.5-3.9-.6a111.1 111.1 0 0 0-14.6 0c-1.9.2-3.1.5-3.8 1.2-.7.6-.8 1.6-.5 2.9.4 1.3 1.1 3 2.2 5.2l26 47.9-28 51a33.2 33.2 0 0 0-2.3 5.1c-.4 1.3-.2 2.2.4 2.9.6.7 1.8 1.1 3.5 1.3a66.5 66.5 0 0 0 13.8.1c1.7-.1 2.9-.3 3.9-.6.9-.3 1.6-.6 2-1.1l1.2-1.8 21.9-42.2 21.9 42.2c.3.7.7 1.3 1.1 1.8.4.5 1.1.9 2 1.1.9.3 2.2.5 3.8.6a108.4 108.4 0 0 0 14.6-.1c1.9-.2 3.2-.6 3.9-1.3.7-.7.8-1.6.5-2.9z" fill="#68356d" id="_xA9_"/>
  </g>
</svg>
