<?xml version="1.0" encoding="utf-8"?>
<!-- Generator: Adobe Illustrator 21.1.0, SVG Export Plug-In . SVG Version: 6.00 Build 0)  -->
<svg version="1.1" id="U_X_D_X_1_" xmlns="http://www.w3.org/2000/svg" xmlns:xlink="http://www.w3.org/1999/xlink" x="0px" y="0px"
	 viewBox="0 0 327.1 336.7" style="enable-background:new 0 0 327.1 336.7;" xml:space="preserve">
<style type="text/css">
	.st0{fill-rule:evenodd;clip-rule:evenodd;fill:#FFFFFF;}
</style>
<g id="U_X_D_X">
	<g>
		<path class="st0" d="M177.5,231.1c-0.5-0.7-1.2-1.2-2.1-1.5c-0.8-0.4-2-0.6-3.3-0.6h-2.3v15.1h2.3c1.2,0,2.3-0.2,3.1-0.5
			c0.8-0.3,1.5-0.8,2.1-1.4c0.6-0.6,1-1.4,1.3-2.4c0.3-1,0.4-2.1,0.4-3.4c0-1-0.1-2-0.4-2.9C178.5,232.6,178.1,231.8,177.5,231.1z
			 M269,82.8c-23.4-13.5-60.7-35-84.1-48.5c-13.2-7.6-29.5-7.6-42.7,0c-23.4,13.5-60.7,35-84.1,48.5c-13.2,7.6-21.4,21.7-21.4,37v97
			c0,15.3,8.1,29.4,21.4,37c23.4,13.5,60.7,35,84.1,48.5c13.2,7.6,29.5,7.6,42.7,0c23.4-13.5,60.7-35,84.1-48.5
			c13.2-7.6,21.4-21.7,21.4-37v-97C290.4,104.6,282.2,90.5,269,82.8z M177.4,145.5l0.3-0.5c0.2-0.1,0.3-0.2,0.5-0.3c0,0,0.1,0,0.1,0
			c0.1,0,0.2-0.1,0.3-0.1c0.1-0.1,0.3-0.1,0.4-0.2c0.8-0.3,1.6-0.7,2.3-1.1c0.6-0.3,1.1-0.7,1.7-1c0.4-0.3,0.8-0.6,1.2-0.9
			c0.3-0.2,0.6-0.5,0.9-0.8c0.3-0.2,0.5-0.5,0.8-0.7c0.2-0.2,0.4-0.4,0.5-0.6c0.1-0.2,0.3-0.3,0.4-0.5c0.8-1,1.4-2.2,1.7-3.5
			c0-0.2,0.1-0.5,0.1-0.7c0-0.1,0-0.3,0-0.4V99.1c0-0.2,0-0.5,0.1-0.7c0-0.1,0-0.1,0-0.2c0-0.2,0.1-0.4,0.1-0.5
			c0.1-0.3,0.1-0.5,0.2-0.8c0.3-0.8,0.8-1.6,1.4-2.3c0.6-0.7,1.4-1.2,2.3-1.6c0.1-0.1,0.3-0.1,0.4-0.2c0.3-0.1,0.5-0.2,0.8-0.2
			c0.3-0.1,0.7-0.1,1.1-0.1l0.1,0c0.1,0,0.2,0,0.2,0l0.9,0.1l0.2,0c0.2,0.1,0.4,0.1,0.7,0.2c0.1,0,0.1,0,0.2,0.1
			c0.2,0.1,0.3,0.1,0.5,0.2c0.2,0.1,0.5,0.2,0.7,0.4c0.9,0.5,1.7,1.3,2.3,2.3c0.3,0.4,0.5,0.9,0.6,1.3c0.1,0.2,0.1,0.3,0.1,0.5
			c0.1,0.2,0.1,0.4,0.1,0.6c0,0.3,0.1,0.6,0.1,0.9l0,0.2v35.1c0,0.1,0,0.2,0,0.3c0,0.5,0,1-0.1,1.6c-0.1,0.9-0.3,1.9-0.5,2.8
			c-0.3,1.3-0.8,2.6-1.3,3.8c-0.6,1.3-1.3,2.5-2.1,3.6c-1.1,1.5-2.3,2.9-3.7,4.1c-0.7,0.7-1.5,1.3-2.3,1.9l0,0
			c-0.2,0.1-0.3,0.2-0.5,0.2c-0.2,0-0.4,0.1-0.5,0c-0.3,0-0.4-0.1-0.7-0.3c-0.1,0-0.1-0.1-0.2-0.1c-0.1-0.1-0.2-0.1-0.3-0.2
			c-0.5-0.3-0.9-0.5-1.4-0.8c-0.9-0.5-1.9-0.9-2.8-1.4c-1.6-0.7-3.2-1.3-4.9-1.9c-0.7-0.2-1.4-0.4-2.1-0.6l-0.5-0.3l-0.4-0.4
			l-0.1-0.5L177.4,145.5z M125.5,99.1l0.1-1l0-0.2c0.1-0.2,0.1-0.4,0.2-0.7c0-0.1,0-0.1,0.1-0.2c0.1-0.2,0.1-0.3,0.2-0.5
			c0.1-0.2,0.2-0.5,0.4-0.7c0.5-0.9,1.3-1.7,2.2-2.3c0.4-0.3,0.9-0.5,1.3-0.6c0.2-0.1,0.3-0.1,0.5-0.1c0.2-0.1,0.4-0.1,0.6-0.1
			c0.3,0,0.6-0.1,0.9-0.1l0.1,0c0.1,0,0.2,0,0.2,0l0.9,0.1l0.2,0c0.2,0.1,0.4,0.1,0.7,0.2c0.1,0,0.1,0,0.2,0.1
			c0.2,0.1,0.3,0.1,0.5,0.2c0.2,0.1,0.5,0.2,0.7,0.4c1,0.6,1.8,1.4,2.4,2.4c0.3,0.5,0.5,1,0.7,1.6c0.1,0.2,0.1,0.5,0.2,0.7
			c0,0.3,0.1,0.6,0.1,0.9l0,0.2c0,1.5,0,3,0,4.5c0,5.1,0,10.3,0,15.4c0,4.8,0,9.5,0,14.3l0,1.1c0,0.2,0,0.4,0,0.6
			c0,0.4,0.1,0.8,0.2,1.2c0.1,0.4,0.2,0.8,0.4,1.2c0.1,0.3,0.2,0.6,0.4,0.8c0.1,0.2,0.2,0.4,0.4,0.6c0.9,1.5,2.1,2.7,3.5,3.7
			c0.2,0.2,0.5,0.3,0.7,0.5c0.3,0.2,0.7,0.4,1.1,0.6c0.5,0.3,1,0.5,1.5,0.8c0.6,0.3,1.2,0.5,1.9,0.8c0.9,0.3,1.7,0.6,2.6,0.8
			c1.1,0.3,2.3,0.5,3.4,0.7c1.4,0.2,2.8,0.4,4.3,0.5c0.9,0.1,1.7,0.1,2.6,0.1c0.3,0,0.5,0,0.8,0c0.2,0,0.3,0,0.5,0c0.5,0,1,0,1.4,0
			l0.1,0l0.2,0c0.2,0,0.4,0,0.5,0c2.3,0.1,4.7,0.3,7,0.7c1,0.2,2,0.4,3,0.6c0.7,0.2,1.4,0.3,2.1,0.5c4.3,1.1,8.4,2.8,12.2,5.1
			c0.5,0.3,1,0.7,1.6,1c0.7,0.5,1.4,1,2.1,1.5c0.8,0.6,1.5,1.2,2.2,1.9c0.5,0.4,0.9,0.9,1.3,1.3l0.1,0.1c0.3,0.4,0.7,0.8,1,1.3
			c0.7,0.9,1.2,1.8,1.8,2.8c0.7,1.2,1.2,2.6,1.6,3.9c0.4,1.3,0.7,2.7,0.8,4.1c0,0.5,0.1,1.1,0.1,1.6c0,0.1,0,0.3,0,0.4
			c0,0.1,0,0.2,0,0.3c0,0.2,0,0.4-0.1,0.7c-0.1,0.7-0.3,1.3-0.6,1.9c-0.3,0.7-0.8,1.4-1.4,1.9c-0.6,0.6-1.3,1-2.1,1.4
			c-0.7,0.3-1.5,0.5-2.2,0.5c-0.7,0-1.4,0-2.1-0.2c-0.6-0.2-1.2-0.4-1.8-0.8c-0.6-0.4-1.2-0.9-1.7-1.5c-0.5-0.6-0.8-1.2-1.1-1.9
			c-0.2-0.6-0.4-1.2-0.4-1.9c0-0.1,0-0.3,0-0.4c0-0.1,0-0.1,0-0.2c0-0.1,0-0.1,0-0.2c0-0.4-0.1-0.7-0.1-1.1c0-0.2-0.1-0.4-0.2-0.7
			c-0.4-1.4-1.1-2.6-2-3.7c-0.1-0.2-0.3-0.3-0.4-0.5c-0.2-0.2-0.4-0.4-0.6-0.6c-0.3-0.3-0.6-0.5-0.8-0.7c-0.3-0.3-0.7-0.6-1.1-0.8
			c-0.5-0.3-0.9-0.6-1.4-0.9c-0.6-0.4-1.3-0.7-1.9-1c-0.8-0.4-1.7-0.7-2.5-1c-1-0.4-2.1-0.7-3.2-0.9c-1.3-0.3-2.7-0.6-4-0.8
			c-1.1-0.2-2.3-0.3-3.5-0.3c-0.5,0-1.1-0.1-1.6-0.1c-0.1,0-0.1,0-0.2,0c0,0,0,0,0,0c0,0,0,0-0.1,0c0,0-0.1,0-0.1,0h-0.1l-0.7,0
			c-0.2,0-0.4,0-0.6,0c-0.2,0-0.4,0-0.6,0l-0.2,0l-0.2,0c-0.2,0-0.5,0-0.7,0c-1.1,0-2.3-0.1-3.4-0.2c-1.9-0.1-3.8-0.4-5.7-0.7
			c-3.1-0.5-6.1-1.3-9.1-2.5c-1.1-0.4-2.3-0.9-3.4-1.5c-0.5-0.3-1-0.5-1.6-0.8l-0.1-0.1c-0.7-0.4-1.4-0.9-2.1-1.3
			c-1.4-1-2.8-2.1-4-3.4c-1.5-1.5-2.8-3.1-3.8-4.9c-0.7-1.1-1.2-2.3-1.7-3.5c-0.4-1.1-0.7-2.2-1-3.3c-0.2-0.9-0.3-1.9-0.4-2.9
			c0-0.5-0.1-1.1-0.1-1.6V99.1z M123.4,175.3l0-0.6c0-0.8,0.1-1.6,0.2-2.3c0.2-1.2,0.4-2.4,0.8-3.6c0.4-1.4,1-2.7,1.7-3.9
			c0.6-1.1,1.4-2.2,2.2-3.2c1.1-1.3,2.3-2.5,3.6-3.6c0.6-0.5,1.2-0.9,1.8-1.4l0.5-0.2c0.2,0,0.4,0,0.5,0c0.2,0,0.3,0.1,0.5,0.2
			c0.1,0,0.1,0.1,0.2,0.1c0.1,0,0.1,0.1,0.2,0.1c0.1,0.1,0.2,0.1,0.3,0.2c0.6,0.4,1.2,0.7,1.9,1.1c1.3,0.7,2.7,1.3,4,1.9
			c1.2,0.5,2.4,1,3.7,1.4c0.7,0.2,1.4,0.4,2.1,0.6l0.5,0.3l0.4,0.5l0.1,0.6l-0.1,0.6l-0.3,0.5c-0.2,0.1-0.3,0.2-0.5,0.3
			c-0.1,0-0.1,0-0.2,0.1c-0.1,0-0.1,0-0.2,0.1c-0.1,0-0.2,0.1-0.3,0.1c-0.4,0.1-0.7,0.3-1.1,0.5c-1.1,0.5-2.2,1-3.2,1.7
			c-0.9,0.6-1.8,1.2-2.6,1.9c-1,0.9-2,2.1-2.5,3.4c-0.1,0.2-0.2,0.4-0.2,0.6c-0.2,0.5-0.3,1.1-0.3,1.7c0,0.2,0,0.3,0,0.5
			c0,0.1,0,0.3,0,0.4c0,0.1,0,0.1,0,0.2c0,0.3,0,0.6-0.1,0.9c-0.1,0.6-0.3,1.2-0.6,1.8c-0.4,0.8-0.9,1.5-1.6,2.1
			c-0.6,0.6-1.4,1-2.2,1.3c-0.7,0.3-1.5,0.4-2.2,0.4c-0.7,0-1.4-0.1-2.1-0.3c-0.7-0.2-1.4-0.6-2-1c-1-0.7-1.8-1.7-2.2-2.8
			c-0.2-0.5-0.4-1-0.4-1.6c0-0.2-0.1-0.5-0.1-0.7l0,0c0,0,0,0,0-0.1v0l0-0.2L123.4,175.3z M142.3,239.4c0,1.4-0.2,2.6-0.6,3.6
			c-0.4,1.1-1,2-1.8,2.7c-0.8,0.7-1.7,1.3-2.9,1.7s-2.4,0.6-3.9,0.6c-1.4,0-2.6-0.2-3.7-0.5c-1.1-0.3-2-0.9-2.8-1.6
			c-0.8-0.7-1.3-1.6-1.7-2.6c-0.4-1.1-0.6-2.3-0.6-3.7v-13.5c0-0.1,0-0.2,0.1-0.3c0.1-0.1,0.2-0.2,0.4-0.2c0.2-0.1,0.4-0.1,0.7-0.1
			c0.3,0,0.6-0.1,1.1-0.1c0.4,0,0.8,0,1.1,0.1c0.3,0,0.5,0.1,0.7,0.1c0.2,0.1,0.3,0.1,0.4,0.2c0.1,0.1,0.1,0.2,0.1,0.3v13.1
			c0,0.9,0.1,1.6,0.3,2.3c0.2,0.6,0.5,1.2,0.9,1.6c0.4,0.4,0.9,0.7,1.4,0.9c0.6,0.2,1.2,0.3,1.9,0.3c0.7,0,1.3-0.1,1.9-0.3
			c0.6-0.2,1-0.5,1.4-0.9c0.4-0.4,0.7-0.9,0.9-1.5c0.2-0.6,0.3-1.3,0.3-2.1v-13.3c0-0.1,0-0.2,0.1-0.3c0.1-0.1,0.2-0.2,0.4-0.2
			c0.2-0.1,0.4-0.1,0.7-0.1c0.3,0,0.7-0.1,1.1-0.1c0.4,0,0.8,0,1.1,0.1c0.3,0,0.5,0.1,0.7,0.1c0.2,0.1,0.3,0.1,0.4,0.2
			c0.1,0.1,0.1,0.2,0.1,0.3V239.4z M162.7,247.4c-0.1,0.1-0.4,0.2-0.7,0.2c-0.4,0-0.9,0.1-1.5,0.1c-0.5,0-1,0-1.3,0
			c-0.3,0-0.5-0.1-0.7-0.1c-0.2-0.1-0.3-0.1-0.4-0.2c-0.1-0.1-0.1-0.2-0.2-0.3l-4.1-8l-4.1,8c-0.1,0.1-0.1,0.3-0.2,0.3
			c-0.1,0.1-0.2,0.2-0.4,0.2c-0.2,0.1-0.4,0.1-0.7,0.1c-0.3,0-0.7,0-1.2,0c-0.6,0-1,0-1.4-0.1c-0.3,0-0.5-0.1-0.7-0.2
			c-0.1-0.1-0.1-0.3-0.1-0.5c0.1-0.2,0.2-0.6,0.4-1l5.3-9.7l-4.9-9.1c-0.2-0.4-0.3-0.7-0.4-1c-0.1-0.2,0-0.4,0.1-0.5
			c0.1-0.1,0.4-0.2,0.7-0.2c0.4,0,0.9,0,1.5,0c0.5,0,1,0,1.3,0c0.3,0,0.6,0.1,0.7,0.1c0.2,0.1,0.3,0.1,0.4,0.2
			c0.1,0.1,0.1,0.2,0.2,0.3l3.9,7.3l3.8-7.3c0.1-0.1,0.1-0.3,0.2-0.3c0.1-0.1,0.2-0.2,0.4-0.2c0.2-0.1,0.4-0.1,0.7-0.1
			c0.3,0,0.7,0,1.2,0c0.6,0,1,0,1.3,0s0.6,0.1,0.7,0.2c0.1,0.1,0.2,0.3,0.1,0.5c-0.1,0.2-0.2,0.6-0.4,1l-4.9,9l5.2,9.7
			c0.2,0.4,0.3,0.7,0.4,1C162.8,247.1,162.8,247.3,162.7,247.4z M130,214.8c-0.2,0-0.5,0-0.7-0.1c-0.2,0-0.4,0-0.7-0.1
			c-0.3-0.1-0.6-0.1-0.8-0.2c-0.8-0.3-1.5-0.7-2.1-1.3c-0.7-0.7-1.3-1.5-1.7-2.4c-0.1-0.2-0.1-0.3-0.2-0.5c-0.1-0.3-0.2-0.5-0.2-0.8
			c-0.1-0.3-0.1-0.7-0.1-1.1l0-0.2v-11.8l0-0.2c0-0.1,0-0.2,0-0.3c0-0.2,0-0.4,0-0.6c0.1-0.7,0.3-1.3,0.5-1.9
			c0.4-0.8,0.9-1.5,1.5-2.1c0.6-0.6,1.3-1,2.1-1.3c0.7-0.3,1.4-0.4,2.2-0.5c0.7,0,1.4,0,2.1,0.2c0.6,0.2,1.2,0.4,1.7,0.7
			c0.6,0.4,1.2,0.9,1.7,1.4c0.5,0.6,0.8,1.2,1.1,1.8c0.2,0.5,0.3,1,0.4,1.5c0,0.3,0.1,0.6,0.1,0.8l0,0l0,0c0,0,0,0,0,0.1l0,0v5.2
			h51.9l0-4.9c0-0.1,0-0.1,0-0.2c0-0.1,0-0.1,0-0.2c0-0.2,0-0.5,0-0.7c0-0.5,0.1-0.9,0.3-1.4c0.2-0.7,0.6-1.4,1.1-2.1
			c0.4-0.5,0.9-1,1.5-1.4c0.4-0.3,0.9-0.5,1.4-0.7c0.5-0.2,0.9-0.3,1.4-0.4c0.3,0,0.5,0,0.8-0.1c0.1,0,0.1,0,0.2,0
			c0.3,0,0.5,0,0.8,0.1c0.5,0.1,1,0.2,1.5,0.4c0.8,0.3,1.6,0.8,2.3,1.4c0.7,0.7,1.3,1.6,1.6,2.5c0.2,0.5,0.3,0.9,0.3,1.4
			c0,0.2,0,0.5,0.1,0.7l0,0l0,0c0,0,0,0.1,0,0.1v12c0,0.2,0,0.5-0.1,0.7c0,0.1,0,0.1,0,0.2c0,0.2-0.1,0.4-0.1,0.5
			c-0.1,0.3-0.2,0.6-0.3,0.8c-0.3,0.8-0.7,1.5-1.3,2.1c-0.6,0.7-1.4,1.3-2.3,1.7c-0.2,0.1-0.3,0.1-0.5,0.2c-0.3,0.1-0.5,0.2-0.8,0.2
			c-0.3,0.1-0.7,0.1-1.1,0.1l-0.2,0H130z M182.9,241.4c-0.5,1.4-1.3,2.6-2.3,3.5c-1,0.9-2.2,1.6-3.6,2c-1.4,0.4-3.1,0.6-5.1,0.6
			h-5.3c-0.4,0-0.7-0.1-0.9-0.3c-0.3-0.2-0.4-0.6-0.4-1.1v-19.3c0-0.5,0.1-0.9,0.4-1.1c0.3-0.2,0.6-0.3,0.9-0.3h5.7
			c2,0,3.6,0.2,5,0.7c1.4,0.5,2.5,1.1,3.5,2.1c0.9,0.9,1.7,2,2.1,3.4c0.5,1.3,0.7,2.9,0.7,4.6C183.7,238.3,183.5,240,182.9,241.4z
			 M202.2,247.4c-0.1,0.1-0.4,0.2-0.7,0.2c-0.4,0-0.9,0.1-1.5,0.1c-0.5,0-1,0-1.3,0c-0.3,0-0.5-0.1-0.7-0.1
			c-0.2-0.1-0.3-0.1-0.4-0.2c-0.1-0.1-0.1-0.2-0.2-0.3l-4.1-8l-4.1,8c-0.1,0.1-0.1,0.3-0.2,0.3c-0.1,0.1-0.2,0.2-0.4,0.2
			c-0.2,0.1-0.4,0.1-0.7,0.1c-0.3,0-0.7,0-1.2,0c-0.6,0-1,0-1.4-0.1c-0.3,0-0.5-0.1-0.7-0.2c-0.1-0.1-0.1-0.3-0.1-0.5
			c0.1-0.2,0.2-0.6,0.4-1l5.3-9.7l-4.9-9.1c-0.2-0.4-0.3-0.7-0.4-1c-0.1-0.2,0-0.4,0.1-0.5c0.1-0.1,0.4-0.2,0.7-0.2
			c0.4,0,0.9,0,1.5,0c0.5,0,1,0,1.3,0c0.3,0,0.6,0.1,0.7,0.1c0.2,0.1,0.3,0.1,0.4,0.2c0.1,0.1,0.1,0.2,0.2,0.3l3.9,7.3l3.8-7.3
			c0.1-0.1,0.1-0.3,0.2-0.3c0.1-0.1,0.2-0.2,0.4-0.2c0.2-0.1,0.4-0.1,0.7-0.1c0.3,0,0.7,0,1.2,0c0.6,0,1,0,1.3,0
			c0.3,0,0.6,0.1,0.7,0.2c0.1,0.1,0.2,0.3,0.1,0.5c-0.1,0.2-0.2,0.6-0.4,1l-4.9,9l5.2,9.7c0.2,0.4,0.3,0.7,0.4,1
			C202.4,247.1,202.4,247.3,202.2,247.4z"/>
	</g>
</g>
</svg>
